<?xml version="1.0" encoding="UTF-8" standalone="no"?><svg xmlns="http://www.w3.org/2000/svg" xmlns:xlink="http://www.w3.org/1999/xlink" contentScriptType="application/ecmascript" contentStyleType="text/css" height="2056px" preserveAspectRatio="none" style="width:765px;height:2056px;" version="1.1" viewBox="0 0 765 2056" width="765px" zoomAndPan="magnify"><defs/><g><rect fill="#FFFFFF" height="66.9648" style="stroke: #000000; stroke-width: 1.0;" width="10" x="290.5" y="171.4473"/><rect fill="#FFFFFF" height="180.9297" style="stroke: #000000; stroke-width: 1.0;" width="10" x="290.5" y="352.377"/><rect fill="#FFFFFF" height="139.4473" style="stroke: #000000; stroke-width: 1.0;" width="10" x="290.5" y="600.2715"/><rect fill="#FFFFFF" height="188.9297" style="stroke: #FFFFFF; stroke-width: 1.0;" width="10" x="290.5" y="870.166"/><line style="stroke: #000000; stroke-width: 1.0;" x1="290.5" x2="290.5" y1="870.166" y2="1059.0957"/><line style="stroke: #000000; stroke-width: 1.0;" x1="300.5" x2="300.5" y1="870.166" y2="1059.0957"/><line style="stroke: #000000; stroke-width: 1.0;" x1="290.5" x2="300.5" y1="870.166" y2="870.166"/><rect fill="#FFFFFF" height="920.0957" style="stroke: #FFFFFF; stroke-width: 1.0;" width="10" x="290.5" y="1107.0957"/><line style="stroke: #000000; stroke-width: 1.0;" x1="290.5" x2="290.5" y1="1107.0957" y2="2027.1914"/><line style="stroke: #000000; stroke-width: 1.0;" x1="300.5" x2="300.5" y1="1107.0957" y2="2027.1914"/><line style="stroke: #000000; stroke-width: 1.0;" x1="290.5" x2="300.5" y1="2027.1914" y2="2027.1914"/><rect fill="#FFFFFF" height="113.9648" style="stroke: #000000; stroke-width: 1.0;" width="10" x="614.5" y="238.4121"/><rect fill="#FFFFFF" height="66.9648" style="stroke: #000000; stroke-width: 1.0;" width="10" x="614.5" y="533.3066"/><rect fill="#FFFFFF" height="197.4121" style="stroke: #000000; stroke-width: 1.0;" width="10" x="614.5" y="739.7188"/><rect fill="#FFFFFF" height="30" style="stroke: #000000; stroke-width: 1.0;" width="10" x="614.5" y="1246.0254"/><rect fill="#FFFFFF" height="162.9297" style="stroke: #000000; stroke-width: 1.0;" width="10" x="614.5" y="1460.4375"/><rect fill="#FFFFFF" height="258.377" style="stroke: #000000; stroke-width: 1.0;" width="10" x="614.5" y="1690.332"/><rect fill="#FFFFFF" height="1596.332" rx="5" ry="5" style="stroke: #000000; stroke-width: 2.0;" width="740.5" x="13" y="430.8594"/><rect fill="#FFFFFF" height="1368.4375" style="stroke: none; stroke-width: 1.0;" width="740.5" x="13" y="658.7539"/><rect fill="#FFFFFF" height="232.377" rx="5" ry="5" style="stroke: #000000; stroke-width: 2.0;" width="427.5" x="231" y="1341.5078"/><rect fill="#FFFFFF" height="105.4473" style="stroke: none; stroke-width: 1.0;" width="427.5" x="231" y="1468.4375"/><rect fill="#FFFFFF" height="126.9297" rx="5" ry="5" style="stroke: #000000; stroke-width: 2.0;" width="427.5" x="231" y="1705.332"/><rect fill="#FFFFFF" height="173.9297" rx="5" ry="5" style="stroke: #000000; stroke-width: 2.0;" width="427.5" x="231" y="1846.2617"/><line style="stroke: #000000; stroke-width: 1.0;" x1="55" x2="55" y1="102.4824" y2="1059.0957"/><line style="stroke: #000000; stroke-width: 1.0; stroke-dasharray: 1.0,4.0;" x1="55" x2="55" y1="1059.0957" y2="1107.0957"/><line style="stroke: #000000; stroke-width: 1.0;" x1="55" x2="55" y1="1107.0957" y2="2044.1914"/><line style="stroke: #000000; stroke-width: 1.0;" x1="295" x2="295" y1="102.4824" y2="1059.0957"/><line style="stroke: #000000; stroke-width: 1.0; stroke-dasharray: 1.0,4.0;" x1="295" x2="295" y1="1059.0957" y2="1107.0957"/><line style="stroke: #000000; stroke-width: 1.0;" x1="295" x2="295" y1="1107.0957" y2="2044.1914"/><line style="stroke: #000000; stroke-width: 1.0;" x1="619.5" x2="619.5" y1="102.4824" y2="1059.0957"/><line style="stroke: #000000; stroke-width: 1.0; stroke-dasharray: 1.0,4.0;" x1="619.5" x2="619.5" y1="1059.0957" y2="1107.0957"/><line style="stroke: #000000; stroke-width: 1.0;" x1="619.5" x2="619.5" y1="1107.0957" y2="2044.1914"/><text fill="#000000" font-family="&quot;Noto Sans CJK KR&quot;, sans-serif" font-size="12" font-weight="bold" lengthAdjust="spacingAndGlyphs" textLength="39" x="33" y="89.8457">사용자</text><ellipse cx="55.5" cy="13" fill="#9EA0CA" rx="8" ry="8" style="stroke: #000000; stroke-width: 2.0;"/><path d="M55.5,21 L55.5,48 M42.5,29 L68.5,29 M55.5,48 L42.5,63 M55.5,48 L68.5,63 " fill="none" style="stroke: #000000; stroke-width: 2.0;"/><rect fill="#9EA0CA" height="53.2295" rx="5" ry="5" style="stroke: #FFFFFF; stroke-width: 1.5;" width="109" x="241" y="48.2529"/><text fill="#FFFFFF" font-family="&quot;Noto Sans CJK KR&quot;, sans-serif" font-size="14" font-weight="bold" lengthAdjust="spacingAndGlyphs" textLength="75" x="258" y="81.4063">클라이언트</text><rect fill="#05D686" height="53.2295" rx="5" ry="5" style="stroke: #FFFFFF; stroke-width: 1.5;" width="58" x="590.5" y="48.2529"/><text fill="#FFFFFF" font-family="&quot;Noto Sans CJK KR&quot;, sans-serif" font-size="14" font-weight="bold" lengthAdjust="spacingAndGlyphs" textLength="24" x="607.5" y="81.4063">CIC</text><rect fill="#FFFFFF" height="66.9648" style="stroke: #000000; stroke-width: 1.0;" width="10" x="290.5" y="171.4473"/><rect fill="#FFFFFF" height="180.9297" style="stroke: #000000; stroke-width: 1.0;" width="10" x="290.5" y="352.377"/><rect fill="#FFFFFF" height="139.4473" style="stroke: #000000; stroke-width: 1.0;" width="10" x="290.5" y="600.2715"/><rect fill="#FFFFFF" height="188.9297" style="stroke: #FFFFFF; stroke-width: 1.0;" width="10" x="290.5" y="870.166"/><line style="stroke: #000000; stroke-width: 1.0;" x1="290.5" x2="290.5" y1="870.166" y2="1059.0957"/><line style="stroke: #000000; stroke-width: 1.0;" x1="300.5" x2="300.5" y1="870.166" y2="1059.0957"/><line style="stroke: #000000; stroke-width: 1.0;" x1="290.5" x2="300.5" y1="870.166" y2="870.166"/><rect fill="#FFFFFF" height="920.0957" style="stroke: #FFFFFF; stroke-width: 1.0;" width="10" x="290.5" y="1107.0957"/><line style="stroke: #000000; stroke-width: 1.0;" x1="290.5" x2="290.5" y1="1107.0957" y2="2027.1914"/><line style="stroke: #000000; stroke-width: 1.0;" x1="300.5" x2="300.5" y1="1107.0957" y2="2027.1914"/><line style="stroke: #000000; stroke-width: 1.0;" x1="290.5" x2="300.5" y1="2027.1914" y2="2027.1914"/><rect fill="#FFFFFF" height="113.9648" style="stroke: #000000; stroke-width: 1.0;" width="10" x="614.5" y="238.4121"/><rect fill="#FFFFFF" height="66.9648" style="stroke: #000000; stroke-width: 1.0;" width="10" x="614.5" y="533.3066"/><rect fill="#FFFFFF" height="197.4121" style="stroke: #000000; stroke-width: 1.0;" width="10" x="614.5" y="739.7188"/><rect fill="#FFFFFF" height="30" style="stroke: #000000; stroke-width: 1.0;" width="10" x="614.5" y="1246.0254"/><rect fill="#FFFFFF" height="162.9297" style="stroke: #000000; stroke-width: 1.0;" width="10" x="614.5" y="1460.4375"/><rect fill="#FFFFFF" height="258.377" style="stroke: #000000; stroke-width: 1.0;" width="10" x="614.5" y="1690.332"/><line style="stroke: #000000; stroke-width: 1.0;" x1="288.5" x2="278.5" y1="171.4473" y2="167.4473"/><line style="stroke: #000000; stroke-width: 1.0;" x1="288.5" x2="278.5" y1="171.4473" y2="175.4473"/><line style="stroke: #000000; stroke-width: 1.0;" x1="55.5" x2="289.5" y1="171.4473" y2="171.4473"/><text fill="#000000" font-family="&quot;Noto Sans CJK KR&quot;, sans-serif" font-size="12" lengthAdjust="spacingAndGlyphs" textLength="81" x="132.5" y="140.3281">알람 등록 요청:</text><text fill="#000000" font-family="&quot;Noto Sans CJK KR&quot;, sans-serif" font-size="12" lengthAdjust="spacingAndGlyphs" textLength="174" x="86" y="156.8105">"오늘 오후 9시에 알람 등록해줘."</text><line style="stroke: #000000; stroke-width: 1.0;" x1="612.5" x2="602.5" y1="238.4121" y2="234.4121"/><line style="stroke: #000000; stroke-width: 1.0;" x1="612.5" x2="602.5" y1="238.4121" y2="242.4121"/><line style="stroke: #000000; stroke-width: 1.0;" x1="295.5" x2="613.5" y1="238.4121" y2="238.4121"/><text fill="#000000" font-family="&quot;Noto Sans CJK KR&quot;, sans-serif" font-size="12" lengthAdjust="spacingAndGlyphs" textLength="90" x="410" y="207.293">사용자 요청 전달</text><text fill="#000000" font-family="&quot;Noto Sans CJK KR&quot;, sans-serif" font-size="12" lengthAdjust="spacingAndGlyphs" textLength="251" x="329.5" y="223.7754">(SpeechRecognizer.Recognize 이벤트 메시지)</text><line style="stroke: #000000; stroke-width: 1.0;" x1="624.5" x2="666.5" y1="288.8945" y2="288.8945"/><line style="stroke: #000000; stroke-width: 1.0;" x1="666.5" x2="666.5" y1="288.8945" y2="301.8945"/><line style="stroke: #000000; stroke-width: 1.0;" x1="625.5" x2="666.5" y1="301.8945" y2="301.8945"/><polygon fill="#000000" points="635.5,297.8945,625.5,301.8945,635.5,305.8945,631.5,301.8945" style="stroke: #000000; stroke-width: 1.0;"/><text fill="#000000" font-family="&quot;Noto Sans CJK KR&quot;, sans-serif" font-size="12" lengthAdjust="spacingAndGlyphs" textLength="90" x="641.5" y="274.2578">사용자 발화 분석</text><line style="stroke: #000000; stroke-width: 1.0;" x1="300.5" x2="310.5" y1="352.377" y2="348.377"/><line style="stroke: #000000; stroke-width: 1.0;" x1="300.5" x2="310.5" y1="352.377" y2="356.377"/><line style="stroke: #000000; stroke-width: 1.0; stroke-dasharray: 2.0,2.0;" x1="300.5" x2="618.5" y1="352.377" y2="352.377"/><text fill="#000000" font-family="&quot;Noto Sans CJK KR&quot;, sans-serif" font-size="12" lengthAdjust="spacingAndGlyphs" textLength="169" x="375.5" y="337.7402">Alerts.SetAlert 지시 메시지 전달</text><line style="stroke: #000000; stroke-width: 1.0;" x1="300.5" x2="342.5" y1="402.8594" y2="402.8594"/><line style="stroke: #000000; stroke-width: 1.0;" x1="342.5" x2="342.5" y1="402.8594" y2="415.8594"/><line style="stroke: #000000; stroke-width: 1.0;" x1="301.5" x2="342.5" y1="415.8594" y2="415.8594"/><polygon fill="#000000" points="311.5,411.8594,301.5,415.8594,311.5,419.8594,307.5,415.8594" style="stroke: #000000; stroke-width: 1.0;"/><text fill="#000000" font-family="&quot;Noto Sans CJK KR&quot;, sans-serif" font-size="12" lengthAdjust="spacingAndGlyphs" textLength="153" x="317.5" y="388.2227">클라이언트 기기에 알람 등록</text><path d="M18,430.8594 L92,430.8594 L92,458.8594 L82,468.8594 L13,468.8594 L13,435.8594 " fill="#EEEEEE" style="stroke: #000000; stroke-width: 1.0;"/><rect fill="none" height="1596.332" rx="5" ry="5" style="stroke: #000000; stroke-width: 2.0;" width="740.5" x="13" y="430.8594"/><text fill="#000000" font-family="&quot;Noto Sans CJK KR&quot;, sans-serif" font-size="12" font-weight="bold" lengthAdjust="spacingAndGlyphs" textLength="14" x="38" y="455.7051">alt</text><text fill="#000000" font-family="&quot;Noto Sans CJK KR&quot;, sans-serif" font-size="12" font-weight="bold" lengthAdjust="spacingAndGlyphs" textLength="167" x="117" y="456.7051">[알람 등록 결과 == 등록 실패]</text><line style="stroke: #000000; stroke-width: 1.0;" x1="612.5" x2="602.5" y1="533.3066" y2="529.3066"/><line style="stroke: #000000; stroke-width: 1.0;" x1="612.5" x2="602.5" y1="533.3066" y2="537.3066"/><line style="stroke: #000000; stroke-width: 1.0;" x1="295.5" x2="613.5" y1="533.3066" y2="533.3066"/><text fill="#000000" font-family="&quot;Noto Sans CJK KR&quot;, sans-serif" font-size="12" lengthAdjust="spacingAndGlyphs" textLength="215" x="347.5" y="518.6699">Alerts.SetAlertFailed 이벤트 메시지 전송</text><line style="stroke: #000000; stroke-width: 1.0;" x1="300.5" x2="310.5" y1="600.2715" y2="596.2715"/><line style="stroke: #000000; stroke-width: 1.0;" x1="300.5" x2="310.5" y1="600.2715" y2="604.2715"/><line style="stroke: #000000; stroke-width: 1.0; stroke-dasharray: 2.0,2.0;" x1="300.5" x2="618.5" y1="600.2715" y2="600.2715"/><text fill="#000000" font-family="&quot;Noto Sans CJK KR&quot;, sans-serif" font-size="12" lengthAdjust="spacingAndGlyphs" textLength="236" x="342" y="569.1523">SpeechSynthesizer.Speak 지시 메시지 전달</text><text fill="#000000" font-family="&quot;Noto Sans CJK KR&quot;, sans-serif" font-size="12" lengthAdjust="spacingAndGlyphs" textLength="157" x="381.5" y="585.6348">("알람을 등록하지 못했어요.")</text><line style="stroke: #000000; stroke-width: 1.0;" x1="55.5" x2="65.5" y1="650.7539" y2="646.7539"/><line style="stroke: #000000; stroke-width: 1.0;" x1="55.5" x2="65.5" y1="650.7539" y2="654.7539"/><line style="stroke: #000000; stroke-width: 1.0; stroke-dasharray: 2.0,2.0;" x1="55.5" x2="289.5" y1="650.7539" y2="650.7539"/><text fill="#000000" font-family="&quot;Noto Sans CJK KR&quot;, sans-serif" font-size="12" lengthAdjust="spacingAndGlyphs" textLength="105" x="120.5" y="636.1172">알람 등록 결과 전달</text><line style="stroke: #000000; stroke-width: 1.0; stroke-dasharray: 2.0,2.0;" x1="13" x2="753.5" y1="659.7539" y2="659.7539"/><text fill="#000000" font-family="&quot;Noto Sans CJK KR&quot;, sans-serif" font-size="12" font-weight="bold" lengthAdjust="spacingAndGlyphs" textLength="167" x="28" y="683.5996">[알람 등록 결과 == 등록 성공]</text><line style="stroke: #000000; stroke-width: 1.0;" x1="612.5" x2="602.5" y1="739.7188" y2="735.7188"/><line style="stroke: #000000; stroke-width: 1.0;" x1="612.5" x2="602.5" y1="739.7188" y2="743.7188"/><line style="stroke: #000000; stroke-width: 1.0;" x1="295.5" x2="613.5" y1="739.7188" y2="739.7188"/><text fill="#000000" font-family="&quot;Noto Sans CJK KR&quot;, sans-serif" font-size="12" lengthAdjust="spacingAndGlyphs" textLength="243" x="333.5" y="725.082">Alerts.SetAlertSucceeded 이벤트 메시지 전송</text><line style="stroke: #000000; stroke-width: 1.0;" x1="624.5" x2="666.5" y1="790.2012" y2="790.2012"/><line style="stroke: #000000; stroke-width: 1.0;" x1="666.5" x2="666.5" y1="790.2012" y2="803.2012"/><line style="stroke: #000000; stroke-width: 1.0;" x1="625.5" x2="666.5" y1="803.2012" y2="803.2012"/><polygon fill="#000000" points="635.5,799.2012,625.5,803.2012,635.5,807.2012,631.5,803.2012" style="stroke: #000000; stroke-width: 1.0;"/><text fill="#000000" font-family="&quot;Noto Sans CJK KR&quot;, sans-serif" font-size="12" lengthAdjust="spacingAndGlyphs" textLength="90" x="641.5" y="775.5645">사용자 알람 등록</text><line style="stroke: #000000; stroke-width: 1.0;" x1="300.5" x2="310.5" y1="870.166" y2="866.166"/><line style="stroke: #000000; stroke-width: 1.0;" x1="300.5" x2="310.5" y1="870.166" y2="874.166"/><line style="stroke: #000000; stroke-width: 1.0; stroke-dasharray: 2.0,2.0;" x1="300.5" x2="613.5" y1="870.166" y2="870.166"/><text fill="#000000" font-family="&quot;Noto Sans CJK KR&quot;, sans-serif" font-size="12" lengthAdjust="spacingAndGlyphs" textLength="236" x="339.5" y="839.0469">SpeechSynthesizer.Speak 지시 메시지 전달</text><text fill="#000000" font-family="&quot;Noto Sans CJK KR&quot;, sans-serif" font-size="12" lengthAdjust="spacingAndGlyphs" textLength="142" x="386.5" y="855.5293">("알람이 등록되었습니다.")</text><line style="stroke: #000000; stroke-width: 1.0;" x1="300.5" x2="310.5" y1="937.1309" y2="933.1309"/><line style="stroke: #000000; stroke-width: 1.0;" x1="300.5" x2="310.5" y1="937.1309" y2="941.1309"/><line style="stroke: #000000; stroke-width: 1.0; stroke-dasharray: 2.0,2.0;" x1="300.5" x2="618.5" y1="937.1309" y2="937.1309"/><text fill="#000000" font-family="&quot;Noto Sans CJK KR&quot;, sans-serif" font-size="12" lengthAdjust="spacingAndGlyphs" textLength="264" x="328" y="906.0117">Actiontimer, Alarm, Reminder, Timer 템플릿 전달</text><text fill="#000000" font-family="&quot;Noto Sans CJK KR&quot;, sans-serif" font-size="12" lengthAdjust="spacingAndGlyphs" textLength="201" x="359.5" y="922.4941">(Clova.RenderTemplate 지시 메시지)</text><line style="stroke: #000000; stroke-width: 1.0;" x1="300.5" x2="342.5" y1="987.6133" y2="987.6133"/><line style="stroke: #000000; stroke-width: 1.0;" x1="342.5" x2="342.5" y1="987.6133" y2="1000.6133"/><line style="stroke: #000000; stroke-width: 1.0;" x1="301.5" x2="342.5" y1="1000.6133" y2="1000.6133"/><polygon fill="#000000" points="311.5,996.6133,301.5,1000.6133,311.5,1004.6133,307.5,1000.6133" style="stroke: #000000; stroke-width: 1.0;"/><text fill="#000000" font-family="&quot;Noto Sans CJK KR&quot;, sans-serif" font-size="12" lengthAdjust="spacingAndGlyphs" textLength="186" x="317.5" y="972.9766">음성 출력 및 등록된 알람 내용 표시</text><line style="stroke: #000000; stroke-width: 1.0;" x1="55.5" x2="65.5" y1="1051.0957" y2="1047.0957"/><line style="stroke: #000000; stroke-width: 1.0;" x1="55.5" x2="65.5" y1="1051.0957" y2="1055.0957"/><line style="stroke: #000000; stroke-width: 1.0; stroke-dasharray: 2.0,2.0;" x1="55.5" x2="289.5" y1="1051.0957" y2="1051.0957"/><text fill="#000000" font-family="&quot;Noto Sans CJK KR&quot;, sans-serif" font-size="12" lengthAdjust="spacingAndGlyphs" textLength="105" x="120.5" y="1036.459">알람 등록 결과 전달</text><line style="stroke: #000000; stroke-width: 1.0;" x1="300.5" x2="342.5" y1="1149.5781" y2="1149.5781"/><line style="stroke: #000000; stroke-width: 1.0;" x1="342.5" x2="342.5" y1="1149.5781" y2="1162.5781"/><line style="stroke: #000000; stroke-width: 1.0;" x1="301.5" x2="342.5" y1="1162.5781" y2="1162.5781"/><polygon fill="#000000" points="311.5,1158.5781,301.5,1162.5781,311.5,1166.5781,307.5,1162.5781" style="stroke: #000000; stroke-width: 1.0;"/><text fill="#000000" font-family="&quot;Noto Sans CJK KR&quot;, sans-serif" font-size="12" lengthAdjust="spacingAndGlyphs" textLength="51" x="317.5" y="1134.9414">알람 시작</text><line style="stroke: #000000; stroke-width: 1.0;" x1="612.5" x2="602.5" y1="1246.0254" y2="1242.0254"/><line style="stroke: #000000; stroke-width: 1.0;" x1="612.5" x2="602.5" y1="1246.0254" y2="1250.0254"/><line style="stroke: #000000; stroke-width: 1.0;" x1="300.5" x2="613.5" y1="1246.0254" y2="1246.0254"/><text fill="#000000" font-family="&quot;Noto Sans CJK KR&quot;, sans-serif" font-size="12" lengthAdjust="spacingAndGlyphs" textLength="78" x="328.5" y="1198.4238">알람 시작 보고</text><text fill="#000000" font-family="&quot;Noto Sans CJK KR&quot;, sans-serif" font-size="12" lengthAdjust="spacingAndGlyphs" textLength="182" x="328.5" y="1214.9063">(Alerts.AlertStarted 이벤트 메시지,</text><text fill="#000000" font-family="&quot;Noto Sans CJK KR&quot;, sans-serif" font-size="12" lengthAdjust="spacingAndGlyphs" textLength="258" x="328.5" y="1231.3887">Alert.AlertsState에 activateAlerts 필드 필수 포함)</text><line style="stroke: #000000; stroke-width: 1.0;" x1="288.5" x2="278.5" y1="1326.5078" y2="1322.5078"/><line style="stroke: #000000; stroke-width: 1.0;" x1="288.5" x2="278.5" y1="1326.5078" y2="1330.5078"/><line style="stroke: #000000; stroke-width: 1.0;" x1="55.5" x2="289.5" y1="1326.5078" y2="1326.5078"/><text fill="#000000" font-family="&quot;Noto Sans CJK KR&quot;, sans-serif" font-size="12" lengthAdjust="spacingAndGlyphs" textLength="191" x="77.5" y="1311.8711">알람 중지 요청 (발화 또는 물리버튼)</text><path d="M236,1341.5078 L310,1341.5078 L310,1369.5078 L300,1379.5078 L231,1379.5078 L231,1346.5078 " fill="#EEEEEE" style="stroke: #000000; stroke-width: 1.0;"/><rect fill="none" height="232.377" rx="5" ry="5" style="stroke: #000000; stroke-width: 2.0;" width="427.5" x="231" y="1341.5078"/><text fill="#000000" font-family="&quot;Noto Sans CJK KR&quot;, sans-serif" font-size="12" font-weight="bold" lengthAdjust="spacingAndGlyphs" textLength="14" x="256" y="1366.3535">alt</text><text fill="#000000" font-family="&quot;Noto Sans CJK KR&quot;, sans-serif" font-size="12" font-weight="bold" lengthAdjust="spacingAndGlyphs" textLength="209" x="335" y="1367.3535">[알람 중지 요청 유형 == 사용자 발화]</text><line style="stroke: #000000; stroke-width: 1.0;" x1="612.5" x2="602.5" y1="1460.4375" y2="1456.4375"/><line style="stroke: #000000; stroke-width: 1.0;" x1="612.5" x2="602.5" y1="1460.4375" y2="1464.4375"/><line style="stroke: #000000; stroke-width: 1.0;" x1="300.5" x2="613.5" y1="1460.4375" y2="1460.4375"/><text fill="#000000" font-family="&quot;Noto Sans CJK KR&quot;, sans-serif" font-size="12" lengthAdjust="spacingAndGlyphs" textLength="105" x="405" y="1429.3184">알람 중지 요청 전달</text><text fill="#000000" font-family="&quot;Noto Sans CJK KR&quot;, sans-serif" font-size="12" lengthAdjust="spacingAndGlyphs" textLength="251" x="332" y="1445.8008">(SpeechRecognizer.Recognize 이벤트 메시지)</text><line style="stroke: #000000; stroke-width: 1.0; stroke-dasharray: 2.0,2.0;" x1="231" x2="658.5" y1="1469.4375" y2="1469.4375"/><text fill="#000000" font-family="&quot;Noto Sans CJK KR&quot;, sans-serif" font-size="12" font-weight="bold" lengthAdjust="spacingAndGlyphs" textLength="196" x="246" y="1493.2832">[알람 중지 요청 유형 == 물리 버튼]</text><line style="stroke: #000000; stroke-width: 1.0;" x1="612.5" x2="602.5" y1="1565.8848" y2="1561.8848"/><line style="stroke: #000000; stroke-width: 1.0;" x1="612.5" x2="602.5" y1="1565.8848" y2="1569.8848"/><line style="stroke: #000000; stroke-width: 1.0;" x1="300.5" x2="613.5" y1="1565.8848" y2="1565.8848"/><text fill="#000000" font-family="&quot;Noto Sans CJK KR&quot;, sans-serif" font-size="12" lengthAdjust="spacingAndGlyphs" textLength="105" x="405" y="1534.7656">알람 중지 요청 전달</text><text fill="#000000" font-family="&quot;Noto Sans CJK KR&quot;, sans-serif" font-size="12" lengthAdjust="spacingAndGlyphs" textLength="216" x="349.5" y="1551.248">(Alerts.RequestAlertStop 이벤트 메시지)</text><line style="stroke: #000000; stroke-width: 1.0;" x1="300.5" x2="310.5" y1="1623.3672" y2="1619.3672"/><line style="stroke: #000000; stroke-width: 1.0;" x1="300.5" x2="310.5" y1="1623.3672" y2="1627.3672"/><line style="stroke: #000000; stroke-width: 1.0; stroke-dasharray: 2.0,2.0;" x1="300.5" x2="618.5" y1="1623.3672" y2="1623.3672"/><text fill="#000000" font-family="&quot;Noto Sans CJK KR&quot;, sans-serif" font-size="12" lengthAdjust="spacingAndGlyphs" textLength="176" x="372" y="1608.7305">Alerts.StopAlert 지시 메시지 전달</text><line style="stroke: #000000; stroke-width: 1.0;" x1="612.5" x2="602.5" y1="1690.332" y2="1686.332"/><line style="stroke: #000000; stroke-width: 1.0;" x1="612.5" x2="602.5" y1="1690.332" y2="1694.332"/><line style="stroke: #000000; stroke-width: 1.0;" x1="300.5" x2="613.5" y1="1690.332" y2="1690.332"/><text fill="#000000" font-family="&quot;Noto Sans CJK KR&quot;, sans-serif" font-size="12" lengthAdjust="spacingAndGlyphs" textLength="105" x="405" y="1659.2129">알람 중지 결과 보고</text><text fill="#000000" font-family="&quot;Noto Sans CJK KR&quot;, sans-serif" font-size="12" lengthAdjust="spacingAndGlyphs" textLength="190" x="362.5" y="1675.6953">(Alerts.AlertStopped 이벤트 메시지)</text><path d="M236,1705.332 L314,1705.332 L314,1733.332 L304,1743.332 L231,1743.332 L231,1710.332 " fill="#EEEEEE" style="stroke: #000000; stroke-width: 1.0;"/><rect fill="none" height="126.9297" rx="5" ry="5" style="stroke: #000000; stroke-width: 2.0;" width="427.5" x="231" y="1705.332"/><text fill="#000000" font-family="&quot;Noto Sans CJK KR&quot;, sans-serif" font-size="12" font-weight="bold" lengthAdjust="spacingAndGlyphs" textLength="18" x="256" y="1730.1777">opt</text><text fill="#000000" font-family="&quot;Noto Sans CJK KR&quot;, sans-serif" font-size="12" font-weight="bold" lengthAdjust="spacingAndGlyphs" textLength="125" x="339" y="1731.1777">[반복 알람 여부 == 네]</text><line style="stroke: #000000; stroke-width: 1.0;" x1="300.5" x2="310.5" y1="1824.2617" y2="1820.2617"/><line style="stroke: #000000; stroke-width: 1.0;" x1="300.5" x2="310.5" y1="1824.2617" y2="1828.2617"/><line style="stroke: #000000; stroke-width: 1.0; stroke-dasharray: 2.0,2.0;" x1="300.5" x2="613.5" y1="1824.2617" y2="1824.2617"/><text fill="#000000" font-family="&quot;Noto Sans CJK KR&quot;, sans-serif" font-size="12" lengthAdjust="spacingAndGlyphs" textLength="105" x="405" y="1793.1426">다음 반복 알람 전달</text><text fill="#000000" font-family="&quot;Noto Sans CJK KR&quot;, sans-serif" font-size="12" lengthAdjust="spacingAndGlyphs" textLength="150" x="382.5" y="1809.625">(Alerts.SetAlert 지시 메시지)</text><path d="M236,1846.2617 L314,1846.2617 L314,1874.2617 L304,1884.2617 L231,1884.2617 L231,1851.2617 " fill="#EEEEEE" style="stroke: #000000; stroke-width: 1.0;"/><rect fill="none" height="173.9297" rx="5" ry="5" style="stroke: #000000; stroke-width: 2.0;" width="427.5" x="231" y="1846.2617"/><text fill="#000000" font-family="&quot;Noto Sans CJK KR&quot;, sans-serif" font-size="12" font-weight="bold" lengthAdjust="spacingAndGlyphs" textLength="18" x="256" y="1871.1074">opt</text><text fill="#000000" font-family="&quot;Noto Sans CJK KR&quot;, sans-serif" font-size="12" font-weight="bold" lengthAdjust="spacingAndGlyphs" textLength="148" x="339" y="1872.1074">[알람 종류 == 액션타이머]</text><line style="stroke: #000000; stroke-width: 1.0;" x1="300.5" x2="310.5" y1="1948.709" y2="1944.709"/><line style="stroke: #000000; stroke-width: 1.0;" x1="300.5" x2="310.5" y1="1948.709" y2="1952.709"/><line style="stroke: #000000; stroke-width: 1.0; stroke-dasharray: 2.0,2.0;" x1="300.5" x2="618.5" y1="1948.709" y2="1948.709"/><text fill="#000000" font-family="&quot;Noto Sans CJK KR&quot;, sans-serif" font-size="12" lengthAdjust="spacingAndGlyphs" textLength="270" x="325" y="1934.0723">사용자가 예약한 동작을 수행하는 지시 메시지 전달</text><line style="stroke: #000000; stroke-width: 1.0;" x1="300.5" x2="342.5" y1="1999.1914" y2="1999.1914"/><line style="stroke: #000000; stroke-width: 1.0;" x1="342.5" x2="342.5" y1="1999.1914" y2="2012.1914"/><line style="stroke: #000000; stroke-width: 1.0;" x1="301.5" x2="342.5" y1="2012.1914" y2="2012.1914"/><polygon fill="#000000" points="311.5,2008.1914,301.5,2012.1914,311.5,2016.1914,307.5,2012.1914" style="stroke: #000000; stroke-width: 1.0;"/><text fill="#000000" font-family="&quot;Noto Sans CJK KR&quot;, sans-serif" font-size="12" lengthAdjust="spacingAndGlyphs" textLength="90" x="317.5" y="1984.5547">예약된 동작 수행</text><!--
@startuml
scale max 880 width
skinparam sequenceMessageAlign center
skinparam shadowing false
skinparam roundcorner 10
skinparam padding 10
skinparam defaultFontSize 12
skinparam defaultFontName "Noto Sans CJK KR", sans-serif

skinparam note {
  BackgroundColor #9EA0CA
  BorderColor #ffffff
  FontColor #ffffff
  FontSize 14
  FontStyle bold
}

skinparam sequence {
  ArrowColor #000000
  ActorBorderColor #000000
  ActorFontStyle Bolder


  LifeLineBorderColor #000000
  LifeLineBackgroundColor transparent
  ParticipantBorderColor transparent
  ParticipantFontSize 14
  ParticipantFontColor #ffffff
  ParticipantFontStyle bold

  BoxBorderColor #000000
  BoxFontColor #ffffff
    BoxFontSize 14
    BoxFontStyle bold
}
hide footbox

skinparam activity {
  BackgroundColor #9EA0CA
  BarColor #ffffff
  BorderColor #ffffff
  DiamondBackgroundColor #05D686
  DiamondBorderColor #ffffff
  DiamondFontColor #ffffff
  DiamondFontSize 14
  DiamondFontStyle bold
  FontColor #ffffff 
  FontSize 14
  FontStyle bold
}

actor 사용자 as user
participant 클라이언트 as client #9EA0CA
participant CIC as cic #05D686

user ->> client : 알람 등록 요청:\n"오늘 오후 9시에 알람 등록해줘."

activate client
  client ->> cic : 사용자 요청 전달\n(SpeechRecognizer.Recognize 이벤트 메시지)
deactivate client

activate cic
  cic -> cic : 사용자 발화 분석
  cic - ->> client : Alerts.SetAlert 지시 메시지 전달
deactivate cic

activate client
  client -> client : 클라이언트 기기에 알람 등록

alt 알람 등록 결과 == 등록 실패

  client ->> cic : Alerts.SetAlertFailed 이벤트 메시지 전송
  deactivate client
  activate cic

    cic - ->> client : SpeechSynthesizer.Speak 지시 메시지 전달\n("알람을 등록하지 못했어요.")
  deactivate cic
  activate client
    client - ->> user : 알람 등록 결과 전달

else 알람 등록 결과 == 등록 성공

  client ->> cic : Alerts.SetAlertSucceeded 이벤트 메시지 전송

deactivate client

activate cic
  cic -> cic : 사용자 알람 등록
  cic - ->> client : SpeechSynthesizer.Speak 지시 메시지 전달\n("알람이 등록되었습니다.")
activate client
  cic - ->> client :  Actiontimer, Alarm, Reminder, Timer 템플릿 전달\n(Clova.RenderTemplate 지시 메시지)
deactivate cic

  client -> client : 음성 출력 및 등록된 알람 내용 표시
  client - ->> user : 알람 등록 결과 전달


...

  client -> client : 알람 시작
  client ->> cic : 알람 시작 보고\n(Alerts.AlertStarted 이벤트 메시지,\lAlert.AlertsState에 activateAlerts 필드 필수 포함)

  activate cic
  deactivate cic

  user ->> client : 알람 중지 요청 (발화 또는 물리버튼)

  alt 알람 중지 요청 유형 == 사용자 발화

    client ->> cic : 알람 중지 요청 전달\n(SpeechRecognizer.Recognize 이벤트 메시지)

  activate cic

  else 알람 중지 요청 유형 == 물리 버튼

    client ->> cic : 알람 중지 요청 전달\n(Alerts.RequestAlertStop 이벤트 메시지)

  end

  cic - ->> client : Alerts.StopAlert 지시 메시지 전달

  deactivate cic

  client ->> cic : 알람 중지 결과 보고\n(Alerts.AlertStopped 이벤트 메시지)
  activate cic

    opt 반복 알람 여부 == 네

      cic - ->> client : 다음 반복 알람 전달\n(Alerts.SetAlert 지시 메시지)

    end

    opt 알람 종류 == 액션타이머

      cic - ->> client : 사용자가 예약한 동작을 수행하는 지시 메시지 전달

    deactivate cic

      client -> client : 예약된 동작 수행

    end

  deactivate client
  deactivate cic

  end

@enduml

PlantUML version 1.2018.12(Sun Oct 21 19:15:15 KST 2018)
(GPL source distribution)
Java Runtime: Java(TM) SE Runtime Environment
JVM: Java HotSpot(TM) 64-Bit Server VM
Java Version: 1.8.0_191-b12
Operating System: Windows 10
OS Version: 10.0
Default Encoding: MS949
Language: ko
Country: KR
--></g></svg>