<?xml version="1.0" encoding="UTF-8" standalone="no"?><svg xmlns="http://www.w3.org/2000/svg" xmlns:xlink="http://www.w3.org/1999/xlink" contentScriptType="application/ecmascript" contentStyleType="text/css" height="1079px" preserveAspectRatio="none" style="width:714px;height:1079px;" version="1.1" viewBox="0 0 714 1079" width="714px" zoomAndPan="magnify"><defs/><g><rect fill="#FFFFFF" height="201.5313" style="stroke: #FFFFFF; stroke-width: 1.0;" width="10" x="105.5" y="110.1328"/><line style="stroke: #000000; stroke-width: 1.0;" x1="105.5" x2="105.5" y1="110.1328" y2="311.6641"/><line style="stroke: #000000; stroke-width: 1.0;" x1="115.5" x2="115.5" y1="110.1328" y2="311.6641"/><line style="stroke: #000000; stroke-width: 1.0;" x1="105.5" x2="115.5" y1="110.1328" y2="110.1328"/><rect fill="#FFFFFF" height="209.6641" style="stroke: #FFFFFF; stroke-width: 1.0;" width="10" x="105.5" y="373.7969"/><line style="stroke: #000000; stroke-width: 1.0;" x1="105.5" x2="105.5" y1="373.7969" y2="583.4609"/><line style="stroke: #000000; stroke-width: 1.0;" x1="115.5" x2="115.5" y1="373.7969" y2="583.4609"/><rect fill="#FFFFFF" height="154.3984" style="stroke: #FFFFFF; stroke-width: 1.0;" width="10" x="105.5" y="645.5938"/><line style="stroke: #000000; stroke-width: 1.0;" x1="105.5" x2="105.5" y1="645.5938" y2="799.9922"/><line style="stroke: #000000; stroke-width: 1.0;" x1="115.5" x2="115.5" y1="645.5938" y2="799.9922"/><rect fill="#FFFFFF" height="85.1328" style="stroke: #FFFFFF; stroke-width: 1.0;" width="10" x="105.5" y="862.125"/><line style="stroke: #000000; stroke-width: 1.0;" x1="105.5" x2="105.5" y1="862.125" y2="947.2578"/><line style="stroke: #000000; stroke-width: 1.0;" x1="115.5" x2="115.5" y1="862.125" y2="947.2578"/><rect fill="#FFFFFF" height="40.1328" style="stroke: #FFFFFF; stroke-width: 1.0;" width="10" x="105.5" y="1009.3906"/><line style="stroke: #000000; stroke-width: 1.0;" x1="105.5" x2="105.5" y1="1009.3906" y2="1049.5234"/><line style="stroke: #000000; stroke-width: 1.0;" x1="115.5" x2="115.5" y1="1009.3906" y2="1049.5234"/><line style="stroke: #000000; stroke-width: 1.0;" x1="105.5" x2="115.5" y1="1049.5234" y2="1049.5234"/><rect fill="#FFFFFF" height="30" style="stroke: #000000; stroke-width: 1.0;" width="10" x="648.5" y="211.3984"/><rect fill="#FFFFFF" height="30" style="stroke: #000000; stroke-width: 1.0;" width="10" x="648.5" y="413.9297"/><rect fill="#FFFFFF" height="30" style="stroke: #000000; stroke-width: 1.0;" width="10" x="648.5" y="685.7266"/><rect fill="#FFFFFF" height="30" style="stroke: #000000; stroke-width: 1.0;" width="10" x="648.5" y="902.2578"/><rect fill="#FFFFFF" height="9" style="stroke: #000000; stroke-width: 1.0;" width="10" x="648.5" y="1049.5234"/><rect fill="#FFFFFF" height="195.5313" rx="5" ry="5" style="stroke: #000000; stroke-width: 2.0;" width="631" x="62" y="256.3984"/><rect fill="#FFFFFF" height="264.7969" rx="5" ry="5" style="stroke: #000000; stroke-width: 2.0;" width="651" x="52" y="465.9297"/><rect fill="#FFFFFF" height="195.5313" rx="5" ry="5" style="stroke: #000000; stroke-width: 2.0;" width="631" x="62" y="528.1953"/><rect fill="#FFFFFF" height="195.5313" rx="5" ry="5" style="stroke: #000000; stroke-width: 2.0;" width="631" x="62" y="744.7266"/><line style="stroke: #000000; stroke-width: 1.0;" x1="35" x2="35" y1="100.1328" y2="311.6641"/><line style="stroke: #000000; stroke-width: 1.0; stroke-dasharray: 1.0,4.0;" x1="35" x2="35" y1="311.6641" y2="373.7969"/><line style="stroke: #000000; stroke-width: 1.0;" x1="35" x2="35" y1="373.7969" y2="583.4609"/><line style="stroke: #000000; stroke-width: 1.0; stroke-dasharray: 1.0,4.0;" x1="35" x2="35" y1="583.4609" y2="645.5938"/><line style="stroke: #000000; stroke-width: 1.0;" x1="35" x2="35" y1="645.5938" y2="799.9922"/><line style="stroke: #000000; stroke-width: 1.0; stroke-dasharray: 1.0,4.0;" x1="35" x2="35" y1="799.9922" y2="862.125"/><line style="stroke: #000000; stroke-width: 1.0;" x1="35" x2="35" y1="862.125" y2="947.2578"/><line style="stroke: #000000; stroke-width: 1.0; stroke-dasharray: 1.0,4.0;" x1="35" x2="35" y1="947.2578" y2="1009.3906"/><line style="stroke: #000000; stroke-width: 1.0;" x1="35" x2="35" y1="1009.3906" y2="1067.5234"/><line style="stroke: #000000; stroke-width: 1.0;" x1="110" x2="110" y1="100.1328" y2="311.6641"/><line style="stroke: #000000; stroke-width: 1.0; stroke-dasharray: 1.0,4.0;" x1="110" x2="110" y1="311.6641" y2="373.7969"/><line style="stroke: #000000; stroke-width: 1.0;" x1="110" x2="110" y1="373.7969" y2="583.4609"/><line style="stroke: #000000; stroke-width: 1.0; stroke-dasharray: 1.0,4.0;" x1="110" x2="110" y1="583.4609" y2="645.5938"/><line style="stroke: #000000; stroke-width: 1.0;" x1="110" x2="110" y1="645.5938" y2="799.9922"/><line style="stroke: #000000; stroke-width: 1.0; stroke-dasharray: 1.0,4.0;" x1="110" x2="110" y1="799.9922" y2="862.125"/><line style="stroke: #000000; stroke-width: 1.0;" x1="110" x2="110" y1="862.125" y2="947.2578"/><line style="stroke: #000000; stroke-width: 1.0; stroke-dasharray: 1.0,4.0;" x1="110" x2="110" y1="947.2578" y2="1009.3906"/><line style="stroke: #000000; stroke-width: 1.0;" x1="110" x2="110" y1="1009.3906" y2="1067.5234"/><line style="stroke: #000000; stroke-width: 1.0;" x1="653" x2="653" y1="100.1328" y2="311.6641"/><line style="stroke: #000000; stroke-width: 1.0; stroke-dasharray: 1.0,4.0;" x1="653" x2="653" y1="311.6641" y2="373.7969"/><line style="stroke: #000000; stroke-width: 1.0;" x1="653" x2="653" y1="373.7969" y2="583.4609"/><line style="stroke: #000000; stroke-width: 1.0; stroke-dasharray: 1.0,4.0;" x1="653" x2="653" y1="583.4609" y2="645.5938"/><line style="stroke: #000000; stroke-width: 1.0;" x1="653" x2="653" y1="645.5938" y2="799.9922"/><line style="stroke: #000000; stroke-width: 1.0; stroke-dasharray: 1.0,4.0;" x1="653" x2="653" y1="799.9922" y2="862.125"/><line style="stroke: #000000; stroke-width: 1.0;" x1="653" x2="653" y1="862.125" y2="947.2578"/><line style="stroke: #000000; stroke-width: 1.0; stroke-dasharray: 1.0,4.0;" x1="653" x2="653" y1="947.2578" y2="1009.3906"/><line style="stroke: #000000; stroke-width: 1.0;" x1="653" x2="653" y1="1009.3906" y2="1067.5234"/><text fill="#000000" font-family="sans-serif" font-size="12" font-weight="bold" lengthAdjust="spacingAndGlyphs" textLength="28" x="18" y="87.6016">User</text><ellipse cx="35" cy="13" fill="#9EA0CA" rx="8" ry="8" style="stroke: #000000; stroke-width: 2.0;"/><path d="M35,21 L35,48 M22,29 L48,29 M35,48 L22,63 M35,48 L48,63 " fill="none" style="stroke: #000000; stroke-width: 2.0;"/><rect fill="#9EA0CA" height="50.4883" rx="5" ry="5" style="stroke: #FFFFFF; stroke-width: 1.5;" width="77" x="72" y="48.6445"/><text fill="#FFFFFF" font-family="sans-serif" font-size="14" font-weight="bold" lengthAdjust="spacingAndGlyphs" textLength="43" x="89" y="79.1797">Client</text><rect fill="#05D686" height="50.4883" rx="5" ry="5" style="stroke: #FFFFFF; stroke-width: 1.5;" width="59" x="624" y="48.6445"/><text fill="#FFFFFF" font-family="sans-serif" font-size="14" font-weight="bold" lengthAdjust="spacingAndGlyphs" textLength="25" x="641" y="79.1797">CIC</text><rect fill="#FFFFFF" height="201.5313" style="stroke: #FFFFFF; stroke-width: 1.0;" width="10" x="105.5" y="110.1328"/><line style="stroke: #000000; stroke-width: 1.0;" x1="105.5" x2="105.5" y1="110.1328" y2="311.6641"/><line style="stroke: #000000; stroke-width: 1.0;" x1="115.5" x2="115.5" y1="110.1328" y2="311.6641"/><line style="stroke: #000000; stroke-width: 1.0;" x1="105.5" x2="115.5" y1="110.1328" y2="110.1328"/><rect fill="#FFFFFF" height="209.6641" style="stroke: #FFFFFF; stroke-width: 1.0;" width="10" x="105.5" y="373.7969"/><line style="stroke: #000000; stroke-width: 1.0;" x1="105.5" x2="105.5" y1="373.7969" y2="583.4609"/><line style="stroke: #000000; stroke-width: 1.0;" x1="115.5" x2="115.5" y1="373.7969" y2="583.4609"/><rect fill="#FFFFFF" height="154.3984" style="stroke: #FFFFFF; stroke-width: 1.0;" width="10" x="105.5" y="645.5938"/><line style="stroke: #000000; stroke-width: 1.0;" x1="105.5" x2="105.5" y1="645.5938" y2="799.9922"/><line style="stroke: #000000; stroke-width: 1.0;" x1="115.5" x2="115.5" y1="645.5938" y2="799.9922"/><rect fill="#FFFFFF" height="85.1328" style="stroke: #FFFFFF; stroke-width: 1.0;" width="10" x="105.5" y="862.125"/><line style="stroke: #000000; stroke-width: 1.0;" x1="105.5" x2="105.5" y1="862.125" y2="947.2578"/><line style="stroke: #000000; stroke-width: 1.0;" x1="115.5" x2="115.5" y1="862.125" y2="947.2578"/><rect fill="#FFFFFF" height="40.1328" style="stroke: #FFFFFF; stroke-width: 1.0;" width="10" x="105.5" y="1009.3906"/><line style="stroke: #000000; stroke-width: 1.0;" x1="105.5" x2="105.5" y1="1009.3906" y2="1049.5234"/><line style="stroke: #000000; stroke-width: 1.0;" x1="115.5" x2="115.5" y1="1009.3906" y2="1049.5234"/><line style="stroke: #000000; stroke-width: 1.0;" x1="105.5" x2="115.5" y1="1049.5234" y2="1049.5234"/><rect fill="#FFFFFF" height="30" style="stroke: #000000; stroke-width: 1.0;" width="10" x="648.5" y="211.3984"/><rect fill="#FFFFFF" height="30" style="stroke: #000000; stroke-width: 1.0;" width="10" x="648.5" y="413.9297"/><rect fill="#FFFFFF" height="30" style="stroke: #000000; stroke-width: 1.0;" width="10" x="648.5" y="685.7266"/><rect fill="#FFFFFF" height="30" style="stroke: #000000; stroke-width: 1.0;" width="10" x="648.5" y="902.2578"/><rect fill="#FFFFFF" height="9" style="stroke: #000000; stroke-width: 1.0;" width="10" x="648.5" y="1049.5234"/><line style="stroke: #000000; stroke-width: 1.0;" x1="115.5" x2="157.5" y1="150.2656" y2="150.2656"/><line style="stroke: #000000; stroke-width: 1.0;" x1="157.5" x2="157.5" y1="150.2656" y2="163.2656"/><line style="stroke: #000000; stroke-width: 1.0;" x1="116.5" x2="157.5" y1="163.2656" y2="163.2656"/><polygon fill="#000000" points="126.5,159.2656,116.5,163.2656,126.5,167.2656,122.5,163.2656" style="stroke: #000000; stroke-width: 1.0;"/><text fill="#000000" font-family="sans-serif" font-size="12" lengthAdjust="spacingAndGlyphs" textLength="118" x="132.5" y="135.7344">Start audio playback</text><line style="stroke: #000000; stroke-width: 1.0;" x1="646.5" x2="636.5" y1="211.3984" y2="207.3984"/><line style="stroke: #000000; stroke-width: 1.0;" x1="646.5" x2="636.5" y1="211.3984" y2="215.3984"/><line style="stroke: #000000; stroke-width: 1.0;" x1="115.5" x2="647.5" y1="211.3984" y2="211.3984"/><text fill="#000000" font-family="sans-serif" font-size="12" lengthAdjust="spacingAndGlyphs" textLength="359" x="202.5" y="196.8672">Report start of audio playback (AudioPlayer.PlayStarted event)</text><path d="M67,256.3984 L148,256.3984 L148,282.3984 L138,292.3984 L62,292.3984 L62,261.3984 " fill="#EEEEEE" style="stroke: #000000; stroke-width: 1.0;"/><rect fill="none" height="195.5313" rx="5" ry="5" style="stroke: #000000; stroke-width: 2.0;" width="631" x="62" y="256.3984"/><text fill="#000000" font-family="sans-serif" font-size="12" font-weight="bold" lengthAdjust="spacingAndGlyphs" textLength="21" x="87" y="279">opt</text><text fill="#000000" font-family="sans-serif" font-size="12" font-weight="bold" lengthAdjust="spacingAndGlyphs" textLength="374" x="173" y="280">[progressReport.progressReportDelayInMilliseconds != null]</text><text fill="#000000" font-family="sans-serif" font-size="12" lengthAdjust="spacingAndGlyphs" textLength="351" x="168.75" y="347.2656">After starting audio playback and passing a specific duration</text><line style="stroke: #000000; stroke-width: 1.0;" x1="646.5" x2="636.5" y1="413.9297" y2="409.9297"/><line style="stroke: #000000; stroke-width: 1.0;" x1="646.5" x2="636.5" y1="413.9297" y2="417.9297"/><line style="stroke: #000000; stroke-width: 1.0;" x1="115.5" x2="647.5" y1="413.9297" y2="413.9297"/><text fill="#000000" font-family="sans-serif" font-size="12" lengthAdjust="spacingAndGlyphs" textLength="482" x="141" y="399.3984">Report progress of audio playback (AudioPlayer.ProgressReportDelayPassed event)</text><path d="M57,465.9297 L138,465.9297 L138,491.9297 L128,501.9297 L52,501.9297 L52,470.9297 " fill="#EEEEEE" style="stroke: #000000; stroke-width: 1.0;"/><rect fill="none" height="264.7969" rx="5" ry="5" style="stroke: #000000; stroke-width: 2.0;" width="651" x="52" y="465.9297"/><text fill="#000000" font-family="sans-serif" font-size="12" font-weight="bold" lengthAdjust="spacingAndGlyphs" textLength="21" x="77" y="488.5313">opt</text><text fill="#000000" font-family="sans-serif" font-size="12" font-weight="bold" lengthAdjust="spacingAndGlyphs" textLength="386" x="163" y="489.5313">[progressReport.progressReportIntervalInMilliseconds != null]</text><path d="M67,528.1953 L155,528.1953 L155,554.1953 L145,564.1953 L62,564.1953 L62,533.1953 " fill="#EEEEEE" style="stroke: #000000; stroke-width: 1.0;"/><rect fill="none" height="195.5313" rx="5" ry="5" style="stroke: #000000; stroke-width: 2.0;" width="631" x="62" y="528.1953"/><text fill="#000000" font-family="sans-serif" font-size="12" font-weight="bold" lengthAdjust="spacingAndGlyphs" textLength="28" x="87" y="550.7969">loop</text><text fill="#000000" font-family="sans-serif" font-size="12" font-weight="bold" lengthAdjust="spacingAndGlyphs" textLength="178" x="180" y="551.7969">[Until audio playback stops,]</text><text fill="#000000" font-family="sans-serif" font-size="12" lengthAdjust="spacingAndGlyphs" textLength="213" x="237.75" y="619.0625">After passing a specific time interval,</text><line style="stroke: #000000; stroke-width: 1.0;" x1="646.5" x2="636.5" y1="685.7266" y2="681.7266"/><line style="stroke: #000000; stroke-width: 1.0;" x1="646.5" x2="636.5" y1="685.7266" y2="689.7266"/><line style="stroke: #000000; stroke-width: 1.0;" x1="115.5" x2="647.5" y1="685.7266" y2="685.7266"/><text fill="#000000" font-family="sans-serif" font-size="12" lengthAdjust="spacingAndGlyphs" textLength="492" x="136" y="671.1953">Report progress of audio playback (AudioPlayer.ProgressReportIntervalPassed event)</text><path d="M67,744.7266 L148,744.7266 L148,770.7266 L138,780.7266 L62,780.7266 L62,749.7266 " fill="#EEEEEE" style="stroke: #000000; stroke-width: 1.0;"/><rect fill="none" height="195.5313" rx="5" ry="5" style="stroke: #000000; stroke-width: 2.0;" width="631" x="62" y="744.7266"/><text fill="#000000" font-family="sans-serif" font-size="12" font-weight="bold" lengthAdjust="spacingAndGlyphs" textLength="21" x="87" y="767.3281">opt</text><text fill="#000000" font-family="sans-serif" font-size="12" font-weight="bold" lengthAdjust="spacingAndGlyphs" textLength="390" x="173" y="768.3281">[progressReport.progressReportPositionInMilliseconds != null]</text><text fill="#000000" font-family="sans-serif" font-size="12" lengthAdjust="spacingAndGlyphs" textLength="237" x="225.75" y="835.5938">After passing a specific point in playback</text><line style="stroke: #000000; stroke-width: 1.0;" x1="646.5" x2="636.5" y1="902.2578" y2="898.2578"/><line style="stroke: #000000; stroke-width: 1.0;" x1="646.5" x2="636.5" y1="902.2578" y2="906.2578"/><line style="stroke: #000000; stroke-width: 1.0;" x1="115.5" x2="647.5" y1="902.2578" y2="902.2578"/><text fill="#000000" font-family="sans-serif" font-size="12" lengthAdjust="spacingAndGlyphs" textLength="494" x="135" y="887.7266">Report progress of audio playback (AudioPlayer.ProgressReportPositionPassed event)</text><text fill="#000000" font-family="sans-serif" font-size="12" lengthAdjust="spacingAndGlyphs" textLength="187" x="250.75" y="982.8594">After completing audio playback</text><line style="stroke: #000000; stroke-width: 1.0;" x1="646.5" x2="636.5" y1="1049.5234" y2="1045.5234"/><line style="stroke: #000000; stroke-width: 1.0;" x1="646.5" x2="636.5" y1="1049.5234" y2="1053.5234"/><line style="stroke: #000000; stroke-width: 1.0;" x1="110.5" x2="647.5" y1="1049.5234" y2="1049.5234"/><text fill="#000000" font-family="sans-serif" font-size="12" lengthAdjust="spacingAndGlyphs" textLength="402" x="178.5" y="1034.9922">Report completion of audio playback (AudioPlayer.PlayFinished event)</text><!--
@startuml
scale max 880 width
skinparam sequenceMessageAlign center
skinparam shadowing false
skinparam roundcorner 10
skinparam padding 10
skinparam defaultFontSize 12
skinparam sequence {
	ArrowColor #000000
	ActorBorderColor #000000
	ActorFontStyle Bolder

	LifeLineBorderColor #000000
	LifeLineBackgroundColor transparent
	ParticipantBorderColor transparent
	ParticipantFontSize 14
	ParticipantFontColor #ffffff
	ParticipantFontStyle bold

	BoxBorderColor #000000
	BoxFontColor #ffffff
    BoxFontSize 14
    BoxFontStyle bold
}
skinparam note {
	BackgroundColor #9EA0CA
	BorderColor #ffffff
	FontColor #ffffff
	FontSize 14
	FontStyle bold
}
hide footbox

actor User as user #9EA0CA
participant Client as client #9EA0CA
participant CIC as cic #05D686

activate client

  client -> client : Start audio playback
  client ->> cic : Report start of audio playback (AudioPlayer.PlayStarted event)

  activate cic
  deactivate cic

  opt progressReport.progressReportDelayInMilliseconds != null

    ... After starting audio playback and passing a specific duration ...

    client ->> cic : Report progress of audio playback (AudioPlayer.ProgressReportDelayPassed event)

    activate cic
    deactivate cic

  end

  opt progressReport.progressReportIntervalInMilliseconds != null

    loop Until audio playback stops,

      ... After passing a specific time interval, ...

      client ->> cic : Report progress of audio playback (AudioPlayer.ProgressReportIntervalPassed event)

      activate cic
      deactivate cic

    end

  end

  opt progressReport.progressReportPositionInMilliseconds != null

    ... After passing a specific point in playback ...

    client ->> cic : Report progress of audio playback (AudioPlayer.ProgressReportPositionPassed event)

    activate cic
    deactivate cic

  end

  ... After completing audio playback ...

  client ->> cic : Report completion of audio playback (AudioPlayer.PlayFinished event)

deactivate client
activate cic
deactivate cic

@enduml

PlantUML version 1.2018.12(Sun Oct 21 19:15:15 KST 2018)
(GPL source distribution)
Java Runtime: OpenJDK Runtime Environment
JVM: OpenJDK 64-Bit Server VM
Java Version: 11+28
Operating System: Mac OS X
OS Version: 10.14.2
Default Encoding: US-ASCII
Language: en
Country: KR
--></g></svg>