<?xml version="1.0" encoding="UTF-8" standalone="no"?><svg xmlns="http://www.w3.org/2000/svg" xmlns:xlink="http://www.w3.org/1999/xlink" contentScriptType="application/ecmascript" contentStyleType="text/css" height="355.6736px" preserveAspectRatio="none" style="width:881px;height:355px;" version="1.1" viewBox="0 0 881 355" width="881.6698px" zoomAndPan="magnify"><defs/><g><ellipse cx="527.0398" cy="16.6983" fill="#000000" rx="8.3491" ry="8.3491" style="stroke: none; stroke-width: 0.8349146110056926;"/><rect fill="#9EA0CA" height="50.696" rx="10.4364" ry="10.4364" style="stroke: #FFFFFF; stroke-width: 1.252371916508539;" width="295.5598" x="379.26" y="41.7457"/><text fill="#FFFFFF" font-family="Noto Sans CJK KR" font-size="11.6888" font-weight="bold" lengthAdjust="spacingAndGlyphs" textLength="262.1632" x="395.9583" y="72.003">Check the dialogue ID of the received directive</text><polygon fill="#05D686" points="446.0531,109.14,608.0266,109.14,618.0455,126.1389,608.0266,143.1378,446.0531,143.1378,436.0342,126.1389,446.0531,109.14" style="stroke: #FFFFFF; stroke-width: 1.252371916508539;"/><text fill="#FFFFFF" font-family="Noto Sans CJK KR" font-size="11.6888" font-weight="bold" lengthAdjust="spacingAndGlyphs" textLength="140.2657" x="456.907" y="131.0482">Does a dialogue ID exist?</text><text fill="#000000" font-family="Noto Sans CJK KR" font-size="10.019" lengthAdjust="spacingAndGlyphs" textLength="16.6983" x="410.9867" y="114.5837">Yes</text><text fill="#000000" font-family="Noto Sans CJK KR" font-size="10.019" lengthAdjust="spacingAndGlyphs" textLength="14.1935" x="626.3947" y="114.5837">No</text><rect fill="#9EA0CA" height="50.696" rx="10.4364" ry="10.4364" style="stroke: #FFFFFF; stroke-width: 1.252371916508539;" width="191.1954" x="222.5047" y="151.4869"/><text fill="#FFFFFF" font-family="Noto Sans CJK KR" font-size="11.6888" font-weight="bold" lengthAdjust="spacingAndGlyphs" textLength="157.7989" x="239.203" y="181.7442">Check the latest dialogue ID</text><polygon fill="#05D686" points="180.759,218.8812,455.4459,218.8812,465.4649,235.8801,455.4459,252.8789,180.759,252.8789,170.74,235.8801,180.759,218.8812" style="stroke: #FFFFFF; stroke-width: 1.252371916508539;"/><text fill="#FFFFFF" font-family="Noto Sans CJK KR" font-size="11.6888" font-weight="bold" lengthAdjust="spacingAndGlyphs" textLength="252.9791" x="191.6129" y="240.7894">Dialogue ID of directive == Latest dialogue ID</text><text fill="#000000" font-family="Noto Sans CJK KR" font-size="10.019" lengthAdjust="spacingAndGlyphs" textLength="16.6983" x="145.6926" y="224.3249">Yes</text><text fill="#000000" font-family="Noto Sans CJK KR" font-size="10.019" lengthAdjust="spacingAndGlyphs" textLength="14.1935" x="473.814" y="224.3249">No</text><rect fill="#9EA0CA" height="50.696" rx="10.4364" ry="10.4364" style="stroke: #FFFFFF; stroke-width: 1.252371916508539;" width="308.0835" x="8.3491" y="261.2281"/><text fill="#FFFFFF" font-family="Noto Sans CJK KR" font-size="11.6888" font-weight="bold" lengthAdjust="spacingAndGlyphs" textLength="274.6869" x="25.0474" y="291.4854">Add the received directive to the message queue</text><ellipse cx="162.3909" cy="337.8064" fill="#FFFFFF" rx="9.1841" ry="9.1841" style="stroke: #000000; stroke-width: 0.8349146110056926;"/><ellipse cx="162.3909" cy="337.8064" fill="#000000" rx="5.0095" ry="5.0095" style="stroke: #7F7F7F; stroke-width: 0.8349146110056926;"/><rect fill="#9EA0CA" height="50.696" rx="10.4364" ry="10.4364" style="stroke: #FFFFFF; stroke-width: 1.252371916508539;" width="201.2144" x="373.2068" y="261.2281"/><text fill="#FFFFFF" font-family="Noto Sans CJK KR" font-size="11.6888" font-weight="bold" lengthAdjust="spacingAndGlyphs" textLength="167.8178" x="389.9051" y="291.4854">Discard the received directive</text><ellipse cx="473.814" cy="337.8064" fill="#FFFFFF" rx="9.1841" ry="9.1841" style="stroke: #000000; stroke-width: 0.8349146110056926;"/><ellipse cx="473.814" cy="337.8064" fill="#000000" rx="5.0095" ry="5.0095" style="stroke: #7F7F7F; stroke-width: 0.8349146110056926;"/><rect fill="#9EA0CA" height="50.696" rx="10.4364" ry="10.4364" style="stroke: #FFFFFF; stroke-width: 1.252371916508539;" width="273.0171" x="599.4687" y="151.4869"/><text fill="#FFFFFF" font-family="Noto Sans CJK KR" font-size="11.6888" font-weight="bold" lengthAdjust="spacingAndGlyphs" textLength="239.6205" x="616.167" y="181.7442">Handle the received directive immediately</text><ellipse cx="735.9772" cy="228.0653" fill="#FFFFFF" rx="9.1841" ry="9.1841" style="stroke: #000000; stroke-width: 0.8349146110056926;"/><ellipse cx="735.9772" cy="228.0653" fill="#000000" rx="5.0095" ry="5.0095" style="stroke: #7F7F7F; stroke-width: 0.8349146110056926;"/><line style="stroke: #000000; stroke-width: 1.252371916508539;" x1="527.0398" x2="527.0398" y1="25.0474" y2="41.7457"/><polygon fill="#000000" points="523.7002,33.3966,527.0398,41.7457,530.3795,33.3966,527.0398,36.7362" style="stroke: #000000; stroke-width: 0.8349146110056926;"/><line style="stroke: #000000; stroke-width: 1.252371916508539;" x1="162.3909" x2="162.3909" y1="311.9241" y2="328.6224"/><polygon fill="#000000" points="159.0512,320.2732,162.3909,328.6224,165.7306,320.2732,162.3909,323.6129" style="stroke: #000000; stroke-width: 0.8349146110056926;"/><line style="stroke: #000000; stroke-width: 1.252371916508539;" x1="473.814" x2="473.814" y1="311.9241" y2="328.6224"/><polygon fill="#000000" points="470.4744,320.2732,473.814,328.6224,477.1537,320.2732,473.814,323.6129" style="stroke: #000000; stroke-width: 0.8349146110056926;"/><line style="stroke: #000000; stroke-width: 1.252371916508539;" x1="170.74" x2="162.3909" y1="235.8801" y2="235.8801"/><line style="stroke: #000000; stroke-width: 1.252371916508539;" x1="162.3909" x2="162.3909" y1="235.8801" y2="261.2281"/><polygon fill="#000000" points="159.0512,252.8789,162.3909,261.2281,165.7306,252.8789,162.3909,256.2186" style="stroke: #000000; stroke-width: 0.8349146110056926;"/><line style="stroke: #000000; stroke-width: 1.252371916508539;" x1="465.4649" x2="473.814" y1="235.8801" y2="235.8801"/><line style="stroke: #000000; stroke-width: 1.252371916508539;" x1="473.814" x2="473.814" y1="235.8801" y2="261.2281"/><polygon fill="#000000" points="470.4744,252.8789,473.814,261.2281,477.1537,252.8789,473.814,256.2186" style="stroke: #000000; stroke-width: 0.8349146110056926;"/><line style="stroke: #000000; stroke-width: 1.252371916508539;" x1="318.1025" x2="318.1025" y1="202.1829" y2="218.8812"/><polygon fill="#000000" points="314.7628,210.5321,318.1025,218.8812,321.4421,210.5321,318.1025,213.8717" style="stroke: #000000; stroke-width: 0.8349146110056926;"/><line style="stroke: #000000; stroke-width: 1.252371916508539;" x1="735.9772" x2="735.9772" y1="202.1829" y2="218.8812"/><polygon fill="#000000" points="732.6376,210.5321,735.9772,218.8812,739.3169,210.5321,735.9772,213.8717" style="stroke: #000000; stroke-width: 0.8349146110056926;"/><line style="stroke: #000000; stroke-width: 1.252371916508539;" x1="436.0342" x2="318.1025" y1="126.1389" y2="126.1389"/><line style="stroke: #000000; stroke-width: 1.252371916508539;" x1="318.1025" x2="318.1025" y1="126.1389" y2="151.4869"/><polygon fill="#000000" points="314.7628,143.1378,318.1025,151.4869,321.4421,143.1378,318.1025,146.4774" style="stroke: #000000; stroke-width: 0.8349146110056926;"/><line style="stroke: #000000; stroke-width: 1.252371916508539;" x1="618.0455" x2="735.9772" y1="126.1389" y2="126.1389"/><line style="stroke: #000000; stroke-width: 1.252371916508539;" x1="735.9772" x2="735.9772" y1="126.1389" y2="151.4869"/><polygon fill="#000000" points="732.6376,143.1378,735.9772,151.4869,739.3169,143.1378,735.9772,146.4774" style="stroke: #000000; stroke-width: 0.8349146110056926;"/><line style="stroke: #000000; stroke-width: 1.252371916508539;" x1="527.0398" x2="527.0398" y1="92.4417" y2="109.14"/><polygon fill="#000000" points="523.7002,100.7909,527.0398,109.14,530.3795,100.7909,527.0398,104.1305" style="stroke: #000000; stroke-width: 0.8349146110056926;"/><!--
@startuml
scale max 880 width
skinparam sequenceMessageAlign center
skinparam shadowing false
skinparam roundcorner 10
skinparam padding 10
skinparam defaultFontSize 12
skinparam defaultFontName "Noto Sans CJK KR"

skinparam note {
  BackgroundColor #9EA0CA
  BorderColor #ffffff
  FontColor #ffffff
  FontSize 14
  FontStyle bold
}

skinparam sequence {
  ArrowColor #000000
  ActorBorderColor #000000
  ActorFontStyle Bolder


  LifeLineBorderColor #000000
  LifeLineBackgroundColor transparent
  ParticipantBorderColor transparent
  ParticipantFontSize 14
  ParticipantFontColor #ffffff
  ParticipantFontStyle bold

  BoxBorderColor #000000
  BoxFontColor #ffffff
    BoxFontSize 14
    BoxFontStyle bold
}
hide footbox

skinparam activity {
  BackgroundColor #9EA0CA
  BarColor #ffffff
  BorderColor #ffffff
  DiamondBackgroundColor #05D686
  DiamondBorderColor #ffffff
  DiamondFontColor #ffffff
  DiamondFontSize 14
  DiamondFontStyle bold
  FontColor #ffffff 
  FontSize 14
  FontStyle bold
}

start

:Check the dialogue ID of the received directive;

if ( Does a dialogue ID exist? ) then (Yes)

  :Check the latest dialogue ID;

  if ( Dialogue ID of directive == Latest dialogue ID ) then (Yes)

  :Add the received directive to the message queue;
  stop

  else (No)

  :Discard the received directive;
  stop
  endif

else (No)
  :Handle the received directive immediately;
  stop
endif

@enduml

PlantUML version 1.2019.09(Tue Aug 27 01:19:51 KST 2019)
(GPL source distribution)
Java Runtime: OpenJDK Runtime Environment
JVM: OpenJDK 64-Bit Server VM
Java Version: 11+28
Operating System: Mac OS X
OS Version: 10.15
Default Encoding: UTF-8
Language: en
Country: KR
--></g></svg>