<?xml version="1.0" encoding="UTF-8" standalone="no"?><svg xmlns="http://www.w3.org/2000/svg" xmlns:xlink="http://www.w3.org/1999/xlink" contentScriptType="application/ecmascript" contentStyleType="text/css" height="1079px" preserveAspectRatio="none" style="width:732px;height:1079px;" version="1.1" viewBox="0 0 732 1079" width="732px" zoomAndPan="magnify"><defs/><g><rect fill="#FFFFFF" height="201.5313" style="stroke: #FFFFFF; stroke-width: 1.0;" width="10" x="132" y="110.1328"/><line style="stroke: #000000; stroke-width: 1.0;" x1="132" x2="132" y1="110.1328" y2="311.6641"/><line style="stroke: #000000; stroke-width: 1.0;" x1="142" x2="142" y1="110.1328" y2="311.6641"/><line style="stroke: #000000; stroke-width: 1.0;" x1="132" x2="142" y1="110.1328" y2="110.1328"/><rect fill="#FFFFFF" height="209.6641" style="stroke: #FFFFFF; stroke-width: 1.0;" width="10" x="132" y="373.7969"/><line style="stroke: #000000; stroke-width: 1.0;" x1="132" x2="132" y1="373.7969" y2="583.4609"/><line style="stroke: #000000; stroke-width: 1.0;" x1="142" x2="142" y1="373.7969" y2="583.4609"/><rect fill="#FFFFFF" height="154.3984" style="stroke: #FFFFFF; stroke-width: 1.0;" width="10" x="132" y="645.5938"/><line style="stroke: #000000; stroke-width: 1.0;" x1="132" x2="132" y1="645.5938" y2="799.9922"/><line style="stroke: #000000; stroke-width: 1.0;" x1="142" x2="142" y1="645.5938" y2="799.9922"/><rect fill="#FFFFFF" height="85.1328" style="stroke: #FFFFFF; stroke-width: 1.0;" width="10" x="132" y="862.125"/><line style="stroke: #000000; stroke-width: 1.0;" x1="132" x2="132" y1="862.125" y2="947.2578"/><line style="stroke: #000000; stroke-width: 1.0;" x1="142" x2="142" y1="862.125" y2="947.2578"/><rect fill="#FFFFFF" height="40.1328" style="stroke: #FFFFFF; stroke-width: 1.0;" width="10" x="132" y="1009.3906"/><line style="stroke: #000000; stroke-width: 1.0;" x1="132" x2="132" y1="1009.3906" y2="1049.5234"/><line style="stroke: #000000; stroke-width: 1.0;" x1="142" x2="142" y1="1009.3906" y2="1049.5234"/><line style="stroke: #000000; stroke-width: 1.0;" x1="132" x2="142" y1="1049.5234" y2="1049.5234"/><rect fill="#FFFFFF" height="30" style="stroke: #000000; stroke-width: 1.0;" width="10" x="667" y="211.3984"/><rect fill="#FFFFFF" height="30" style="stroke: #000000; stroke-width: 1.0;" width="10" x="667" y="413.9297"/><rect fill="#FFFFFF" height="30" style="stroke: #000000; stroke-width: 1.0;" width="10" x="667" y="685.7266"/><rect fill="#FFFFFF" height="30" style="stroke: #000000; stroke-width: 1.0;" width="10" x="667" y="902.2578"/><rect fill="#FFFFFF" height="9" style="stroke: #000000; stroke-width: 1.0;" width="10" x="667" y="1049.5234"/><rect fill="#FFFFFF" height="195.5313" rx="5" ry="5" style="stroke: #000000; stroke-width: 2.0;" width="637.5" x="74" y="256.3984"/><rect fill="#FFFFFF" height="264.7969" rx="5" ry="5" style="stroke: #000000; stroke-width: 2.0;" width="657.5" x="64" y="465.9297"/><rect fill="#FFFFFF" height="195.5313" rx="5" ry="5" style="stroke: #000000; stroke-width: 2.0;" width="637.5" x="74" y="528.1953"/><rect fill="#FFFFFF" height="195.5313" rx="5" ry="5" style="stroke: #000000; stroke-width: 2.0;" width="637.5" x="74" y="744.7266"/><line style="stroke: #000000; stroke-width: 1.0;" x1="41" x2="41" y1="100.1328" y2="311.6641"/><line style="stroke: #000000; stroke-width: 1.0; stroke-dasharray: 1.0,4.0;" x1="41" x2="41" y1="311.6641" y2="373.7969"/><line style="stroke: #000000; stroke-width: 1.0;" x1="41" x2="41" y1="373.7969" y2="583.4609"/><line style="stroke: #000000; stroke-width: 1.0; stroke-dasharray: 1.0,4.0;" x1="41" x2="41" y1="583.4609" y2="645.5938"/><line style="stroke: #000000; stroke-width: 1.0;" x1="41" x2="41" y1="645.5938" y2="799.9922"/><line style="stroke: #000000; stroke-width: 1.0; stroke-dasharray: 1.0,4.0;" x1="41" x2="41" y1="799.9922" y2="862.125"/><line style="stroke: #000000; stroke-width: 1.0;" x1="41" x2="41" y1="862.125" y2="947.2578"/><line style="stroke: #000000; stroke-width: 1.0; stroke-dasharray: 1.0,4.0;" x1="41" x2="41" y1="947.2578" y2="1009.3906"/><line style="stroke: #000000; stroke-width: 1.0;" x1="41" x2="41" y1="1009.3906" y2="1067.5234"/><line style="stroke: #000000; stroke-width: 1.0;" x1="137" x2="137" y1="100.1328" y2="311.6641"/><line style="stroke: #000000; stroke-width: 1.0; stroke-dasharray: 1.0,4.0;" x1="137" x2="137" y1="311.6641" y2="373.7969"/><line style="stroke: #000000; stroke-width: 1.0;" x1="137" x2="137" y1="373.7969" y2="583.4609"/><line style="stroke: #000000; stroke-width: 1.0; stroke-dasharray: 1.0,4.0;" x1="137" x2="137" y1="583.4609" y2="645.5938"/><line style="stroke: #000000; stroke-width: 1.0;" x1="137" x2="137" y1="645.5938" y2="799.9922"/><line style="stroke: #000000; stroke-width: 1.0; stroke-dasharray: 1.0,4.0;" x1="137" x2="137" y1="799.9922" y2="862.125"/><line style="stroke: #000000; stroke-width: 1.0;" x1="137" x2="137" y1="862.125" y2="947.2578"/><line style="stroke: #000000; stroke-width: 1.0; stroke-dasharray: 1.0,4.0;" x1="137" x2="137" y1="947.2578" y2="1009.3906"/><line style="stroke: #000000; stroke-width: 1.0;" x1="137" x2="137" y1="1009.3906" y2="1067.5234"/><line style="stroke: #000000; stroke-width: 1.0;" x1="671.5" x2="671.5" y1="100.1328" y2="311.6641"/><line style="stroke: #000000; stroke-width: 1.0; stroke-dasharray: 1.0,4.0;" x1="671.5" x2="671.5" y1="311.6641" y2="373.7969"/><line style="stroke: #000000; stroke-width: 1.0;" x1="671.5" x2="671.5" y1="373.7969" y2="583.4609"/><line style="stroke: #000000; stroke-width: 1.0; stroke-dasharray: 1.0,4.0;" x1="671.5" x2="671.5" y1="583.4609" y2="645.5938"/><line style="stroke: #000000; stroke-width: 1.0;" x1="671.5" x2="671.5" y1="645.5938" y2="799.9922"/><line style="stroke: #000000; stroke-width: 1.0; stroke-dasharray: 1.0,4.0;" x1="671.5" x2="671.5" y1="799.9922" y2="862.125"/><line style="stroke: #000000; stroke-width: 1.0;" x1="671.5" x2="671.5" y1="862.125" y2="947.2578"/><line style="stroke: #000000; stroke-width: 1.0; stroke-dasharray: 1.0,4.0;" x1="671.5" x2="671.5" y1="947.2578" y2="1009.3906"/><line style="stroke: #000000; stroke-width: 1.0;" x1="671.5" x2="671.5" y1="1009.3906" y2="1067.5234"/><text fill="#000000" font-family="&quot;Malgun Gothic&quot;, sans-serif" font-size="12" font-weight="bold" lengthAdjust="spacingAndGlyphs" textLength="40" x="18" y="87.6016">ユーザー</text><ellipse cx="41" cy="13" fill="#9EA0CA" rx="8" ry="8" style="stroke: #000000; stroke-width: 2.0;"/><path d="M41,21 L41,48 M28,29 L54,29 M41,48 L28,63 M41,48 L54,63 " fill="none" style="stroke: #000000; stroke-width: 2.0;"/><rect fill="#9EA0CA" height="50.4883" rx="5" ry="5" style="stroke: #FFFFFF; stroke-width: 1.5;" width="106" x="84" y="48.6445"/><text fill="#FFFFFF" font-family="&quot;Malgun Gothic&quot;, sans-serif" font-size="14" font-weight="bold" lengthAdjust="spacingAndGlyphs" textLength="72" x="101" y="79.1797">クライアント</text><rect fill="#05D686" height="50.4883" rx="5" ry="5" style="stroke: #FFFFFF; stroke-width: 1.5;" width="59" x="642.5" y="48.6445"/><text fill="#FFFFFF" font-family="&quot;Malgun Gothic&quot;, sans-serif" font-size="14" font-weight="bold" lengthAdjust="spacingAndGlyphs" textLength="25" x="659.5" y="79.1797">CIC</text><rect fill="#FFFFFF" height="201.5313" style="stroke: #FFFFFF; stroke-width: 1.0;" width="10" x="132" y="110.1328"/><line style="stroke: #000000; stroke-width: 1.0;" x1="132" x2="132" y1="110.1328" y2="311.6641"/><line style="stroke: #000000; stroke-width: 1.0;" x1="142" x2="142" y1="110.1328" y2="311.6641"/><line style="stroke: #000000; stroke-width: 1.0;" x1="132" x2="142" y1="110.1328" y2="110.1328"/><rect fill="#FFFFFF" height="209.6641" style="stroke: #FFFFFF; stroke-width: 1.0;" width="10" x="132" y="373.7969"/><line style="stroke: #000000; stroke-width: 1.0;" x1="132" x2="132" y1="373.7969" y2="583.4609"/><line style="stroke: #000000; stroke-width: 1.0;" x1="142" x2="142" y1="373.7969" y2="583.4609"/><rect fill="#FFFFFF" height="154.3984" style="stroke: #FFFFFF; stroke-width: 1.0;" width="10" x="132" y="645.5938"/><line style="stroke: #000000; stroke-width: 1.0;" x1="132" x2="132" y1="645.5938" y2="799.9922"/><line style="stroke: #000000; stroke-width: 1.0;" x1="142" x2="142" y1="645.5938" y2="799.9922"/><rect fill="#FFFFFF" height="85.1328" style="stroke: #FFFFFF; stroke-width: 1.0;" width="10" x="132" y="862.125"/><line style="stroke: #000000; stroke-width: 1.0;" x1="132" x2="132" y1="862.125" y2="947.2578"/><line style="stroke: #000000; stroke-width: 1.0;" x1="142" x2="142" y1="862.125" y2="947.2578"/><rect fill="#FFFFFF" height="40.1328" style="stroke: #FFFFFF; stroke-width: 1.0;" width="10" x="132" y="1009.3906"/><line style="stroke: #000000; stroke-width: 1.0;" x1="132" x2="132" y1="1009.3906" y2="1049.5234"/><line style="stroke: #000000; stroke-width: 1.0;" x1="142" x2="142" y1="1009.3906" y2="1049.5234"/><line style="stroke: #000000; stroke-width: 1.0;" x1="132" x2="142" y1="1049.5234" y2="1049.5234"/><rect fill="#FFFFFF" height="30" style="stroke: #000000; stroke-width: 1.0;" width="10" x="667" y="211.3984"/><rect fill="#FFFFFF" height="30" style="stroke: #000000; stroke-width: 1.0;" width="10" x="667" y="413.9297"/><rect fill="#FFFFFF" height="30" style="stroke: #000000; stroke-width: 1.0;" width="10" x="667" y="685.7266"/><rect fill="#FFFFFF" height="30" style="stroke: #000000; stroke-width: 1.0;" width="10" x="667" y="902.2578"/><rect fill="#FFFFFF" height="9" style="stroke: #000000; stroke-width: 1.0;" width="10" x="667" y="1049.5234"/><line style="stroke: #000000; stroke-width: 1.0;" x1="142" x2="184" y1="150.2656" y2="150.2656"/><line style="stroke: #000000; stroke-width: 1.0;" x1="184" x2="184" y1="150.2656" y2="163.2656"/><line style="stroke: #000000; stroke-width: 1.0;" x1="143" x2="184" y1="163.2656" y2="163.2656"/><polygon fill="#000000" points="153,159.2656,143,163.2656,153,167.2656,149,163.2656" style="stroke: #000000; stroke-width: 1.0;"/><text fill="#000000" font-family="&quot;Malgun Gothic&quot;, sans-serif" font-size="12" lengthAdjust="spacingAndGlyphs" textLength="120" x="159" y="135.7344">オーディオ再生を開始する</text><line style="stroke: #000000; stroke-width: 1.0;" x1="665" x2="655" y1="211.3984" y2="207.3984"/><line style="stroke: #000000; stroke-width: 1.0;" x1="665" x2="655" y1="211.3984" y2="215.3984"/><line style="stroke: #000000; stroke-width: 1.0;" x1="142" x2="666" y1="211.3984" y2="211.3984"/><text fill="#000000" font-family="&quot;Malgun Gothic&quot;, sans-serif" font-size="12" lengthAdjust="spacingAndGlyphs" textLength="394" x="207.5" y="196.8672">オーディオ再生を開始したことをレポートする(AudioPlayer.PlayStartedイベント)</text><path d="M79,256.3984 L160,256.3984 L160,282.3984 L150,292.3984 L74,292.3984 L74,261.3984 " fill="#EEEEEE" style="stroke: #000000; stroke-width: 1.0;"/><rect fill="none" height="195.5313" rx="5" ry="5" style="stroke: #000000; stroke-width: 2.0;" width="637.5" x="74" y="256.3984"/><text fill="#000000" font-family="&quot;Malgun Gothic&quot;, sans-serif" font-size="12" font-weight="bold" lengthAdjust="spacingAndGlyphs" textLength="21" x="99" y="279">opt</text><text fill="#000000" font-family="&quot;Malgun Gothic&quot;, sans-serif" font-size="12" font-weight="bold" lengthAdjust="spacingAndGlyphs" textLength="374" x="185" y="280">[progressReport.progressReportDelayInMilliseconds != null]</text><text fill="#000000" font-family="&quot;Malgun Gothic&quot;, sans-serif" font-size="12" lengthAdjust="spacingAndGlyphs" textLength="272" x="220.5" y="347.2656">オーディオ再生を開始してから指定された時間が経過した後</text><line style="stroke: #000000; stroke-width: 1.0;" x1="665" x2="655" y1="413.9297" y2="409.9297"/><line style="stroke: #000000; stroke-width: 1.0;" x1="665" x2="655" y1="413.9297" y2="417.9297"/><line style="stroke: #000000; stroke-width: 1.0;" x1="142" x2="666" y1="413.9297" y2="413.9297"/><text fill="#000000" font-family="&quot;Malgun Gothic&quot;, sans-serif" font-size="12" lengthAdjust="spacingAndGlyphs" textLength="474" x="167.5" y="399.3984">オーディオ再生の進行状況をレポートする(AudioPlayer.ProgressReportDelayPassedイベント)</text><path d="M69,465.9297 L150,465.9297 L150,491.9297 L140,501.9297 L64,501.9297 L64,470.9297 " fill="#EEEEEE" style="stroke: #000000; stroke-width: 1.0;"/><rect fill="none" height="264.7969" rx="5" ry="5" style="stroke: #000000; stroke-width: 2.0;" width="657.5" x="64" y="465.9297"/><text fill="#000000" font-family="&quot;Malgun Gothic&quot;, sans-serif" font-size="12" font-weight="bold" lengthAdjust="spacingAndGlyphs" textLength="21" x="89" y="488.5313">opt</text><text fill="#000000" font-family="&quot;Malgun Gothic&quot;, sans-serif" font-size="12" font-weight="bold" lengthAdjust="spacingAndGlyphs" textLength="386" x="175" y="489.5313">[progressReport.progressReportIntervalInMilliseconds != null]</text><path d="M79,528.1953 L167,528.1953 L167,554.1953 L157,564.1953 L74,564.1953 L74,533.1953 " fill="#EEEEEE" style="stroke: #000000; stroke-width: 1.0;"/><rect fill="none" height="195.5313" rx="5" ry="5" style="stroke: #000000; stroke-width: 2.0;" width="637.5" x="74" y="528.1953"/><text fill="#000000" font-family="&quot;Malgun Gothic&quot;, sans-serif" font-size="12" font-weight="bold" lengthAdjust="spacingAndGlyphs" textLength="28" x="99" y="550.7969">loop</text><text fill="#000000" font-family="&quot;Malgun Gothic&quot;, sans-serif" font-size="12" font-weight="bold" lengthAdjust="spacingAndGlyphs" textLength="148" x="192" y="551.7969">[オーディオ再生が停止するまで]</text><text fill="#000000" font-family="&quot;Malgun Gothic&quot;, sans-serif" font-size="12" lengthAdjust="spacingAndGlyphs" textLength="162" x="275.5" y="619.0625">指定された間隔の時間が経過した後</text><line style="stroke: #000000; stroke-width: 1.0;" x1="665" x2="655" y1="685.7266" y2="681.7266"/><line style="stroke: #000000; stroke-width: 1.0;" x1="665" x2="655" y1="685.7266" y2="689.7266"/><line style="stroke: #000000; stroke-width: 1.0;" x1="142" x2="666" y1="685.7266" y2="685.7266"/><text fill="#000000" font-family="&quot;Malgun Gothic&quot;, sans-serif" font-size="12" lengthAdjust="spacingAndGlyphs" textLength="484" x="162.5" y="671.1953">オーディオ再生の進行状況をレポートする(AudioPlayer.ProgressReportIntervalPassedイベント)</text><path d="M79,744.7266 L160,744.7266 L160,770.7266 L150,780.7266 L74,780.7266 L74,749.7266 " fill="#EEEEEE" style="stroke: #000000; stroke-width: 1.0;"/><rect fill="none" height="195.5313" rx="5" ry="5" style="stroke: #000000; stroke-width: 2.0;" width="637.5" x="74" y="744.7266"/><text fill="#000000" font-family="&quot;Malgun Gothic&quot;, sans-serif" font-size="12" font-weight="bold" lengthAdjust="spacingAndGlyphs" textLength="21" x="99" y="767.3281">opt</text><text fill="#000000" font-family="&quot;Malgun Gothic&quot;, sans-serif" font-size="12" font-weight="bold" lengthAdjust="spacingAndGlyphs" textLength="390" x="185" y="768.3281">[progressReport.progressReportPositionInMilliseconds != null]</text><text fill="#000000" font-family="&quot;Malgun Gothic&quot;, sans-serif" font-size="12" lengthAdjust="spacingAndGlyphs" textLength="212" x="250.5" y="835.5938">オーディオの特定の再生ポイントが経過した後</text><line style="stroke: #000000; stroke-width: 1.0;" x1="665" x2="655" y1="902.2578" y2="898.2578"/><line style="stroke: #000000; stroke-width: 1.0;" x1="665" x2="655" y1="902.2578" y2="906.2578"/><line style="stroke: #000000; stroke-width: 1.0;" x1="142" x2="666" y1="902.2578" y2="902.2578"/><text fill="#000000" font-family="&quot;Malgun Gothic&quot;, sans-serif" font-size="12" lengthAdjust="spacingAndGlyphs" textLength="486" x="161.5" y="887.7266">オーディオ再生の進行状況をレポートする(AudioPlayer.ProgressReportPositionPassedイベント)</text><text fill="#000000" font-family="&quot;Malgun Gothic&quot;, sans-serif" font-size="12" lengthAdjust="spacingAndGlyphs" textLength="130" x="291.5" y="982.8594">オーディオ再生が完了した後</text><line style="stroke: #000000; stroke-width: 1.0;" x1="665" x2="655" y1="1049.5234" y2="1045.5234"/><line style="stroke: #000000; stroke-width: 1.0;" x1="665" x2="655" y1="1049.5234" y2="1053.5234"/><line style="stroke: #000000; stroke-width: 1.0;" x1="137" x2="666" y1="1049.5234" y2="1049.5234"/><text fill="#000000" font-family="&quot;Malgun Gothic&quot;, sans-serif" font-size="12" lengthAdjust="spacingAndGlyphs" textLength="400" x="202" y="1034.9922">オーディオ再生が完了したことをレポートする(AudioPlayer.PlayFinishedイベント)</text><!--
@startuml
scale max 880 width
skinparam sequenceMessageAlign center
skinparam shadowing false
skinparam roundcorner 10
skinparam padding 10
skinparam defaultFontSize 12
skinparam defaultFontName "Malgun Gothic", sans-serif

skinparam note {
  BackgroundColor #9EA0CA
  BorderColor #ffffff
  FontColor #ffffff
  FontSize 14
  FontStyle bold
}

skinparam sequence {
  ArrowColor #000000
  ActorBorderColor #000000
  ActorFontStyle Bolder


  LifeLineBorderColor #000000
  LifeLineBackgroundColor transparent
  ParticipantBorderColor transparent
  ParticipantFontSize 14
  ParticipantFontColor #ffffff
  ParticipantFontStyle bold

  BoxBorderColor #000000
  BoxFontColor #ffffff
    BoxFontSize 14
    BoxFontStyle bold
}
hide footbox

skinparam activity {
  BackgroundColor #9EA0CA
  BarColor #ffffff
  BorderColor #ffffff
  DiamondBackgroundColor #05D686
  DiamondBorderColor #ffffff
  DiamondFontColor #ffffff
  DiamondFontSize 14
  DiamondFontStyle bold
  FontColor #ffffff 
  FontSize 14
  FontStyle bold
}

actor ユーザー as user #9EA0CA
participant クライアント as client #9EA0CA
participant CIC as cic #05D686

activate client

  client -> client : オーディオ再生を開始する
  client ->> cic : オーディオ再生を開始したことをレポートする(AudioPlayer.PlayStartedイベント)

  activate cic
  deactivate cic

  opt progressReport.progressReportDelayInMilliseconds != null

    ... オーディオ再生を開始してから指定された時間が経過した後 ...

    client ->> cic : オーディオ再生の進行状況をレポートする(AudioPlayer.ProgressReportDelayPassedイベント)

    activate cic
    deactivate cic

  end

  opt progressReport.progressReportIntervalInMilliseconds != null

    loop オーディオ再生が停止するまで

      ... 指定された間隔の時間が経過した後 ...

      client ->> cic : オーディオ再生の進行状況をレポートする(AudioPlayer.ProgressReportIntervalPassedイベント)

      activate cic
      deactivate cic

    end

  end

  opt progressReport.progressReportPositionInMilliseconds != null

    ... オーディオの特定の再生ポイントが経過した後 ...

    client ->> cic : オーディオ再生の進行状況をレポートする(AudioPlayer.ProgressReportPositionPassedイベント)

    activate cic
    deactivate cic

  end

  ... オーディオ再生が完了した後 ...

  client ->> cic : オーディオ再生が完了したことをレポートする(AudioPlayer.PlayFinishedイベント)

deactivate client
activate cic
deactivate cic

@enduml

PlantUML version 1.2018.12(Sun Oct 21 19:15:15 KST 2018)
(GPL source distribution)
Java Runtime: OpenJDK Runtime Environment
JVM: OpenJDK 64-Bit Server VM
Java Version: 11+28
Operating System: Mac OS X
OS Version: 10.14.2
Default Encoding: US-ASCII
Language: en
Country: KR
--></g></svg>