<?xml version="1.0" encoding="UTF-8" standalone="no"?><svg xmlns="http://www.w3.org/2000/svg" xmlns:xlink="http://www.w3.org/1999/xlink" contentScriptType="application/ecmascript" contentStyleType="text/css" height="315.7399px" preserveAspectRatio="none" style="width:881px;height:315px;" version="1.1" viewBox="0 0 881 315" width="881.1523px" zoomAndPan="magnify"><defs/><g><ellipse cx="539.1008" cy="15.3645" fill="#000000" rx="7.6822" ry="7.6822" style="stroke: none; stroke-width: 0.7682234831951114;"/><rect fill="#9EA0CA" height="44.2569" rx="9.6028" ry="9.6028" style="stroke: #FFFFFF; stroke-width: 1.152335224792667;" width="294.9978" x="391.6019" y="38.4112"/><text fill="#FFFFFF" font-family="Noto Sans CJK JP" font-size="10.7551" font-weight="bold" lengthAdjust="spacingAndGlyphs" textLength="264.2689" x="406.9664" y="64.9404">受信したディレクティブのダイアログIDを確認する</text><polygon fill="#05D686" points="465.3514,98.0325,612.8503,98.0325,622.069,112.4787,612.8503,126.9249,465.3514,126.9249,456.1327,112.4787,465.3514,98.0325" style="stroke: #FFFFFF; stroke-width: 1.152335224792667;"/><text fill="#FFFFFF" font-family="Noto Sans CJK JP" font-size="10.7551" font-weight="bold" lengthAdjust="spacingAndGlyphs" textLength="125.9887" x="476.1065" y="116.8795">ダイアログIDが存在する</text><text fill="#000000" font-family="Noto Sans CJK JP" font-size="9.2187" lengthAdjust="spacingAndGlyphs" textLength="18.4374" x="430.0131" y="102.7709">はい</text><text fill="#000000" font-family="Noto Sans CJK JP" font-size="9.2187" lengthAdjust="spacingAndGlyphs" textLength="27.656" x="629.7512" y="102.7709">いいえ</text><rect fill="#9EA0CA" height="44.2569" rx="9.6028" ry="9.6028" style="stroke: #FFFFFF; stroke-width: 1.152335224792667;" width="179.7643" x="240.0698" y="134.6072"/><text fill="#FFFFFF" font-family="Noto Sans CJK JP" font-size="10.7551" font-weight="bold" lengthAdjust="spacingAndGlyphs" textLength="149.0354" x="255.4343" y="161.1364">最終ダイアログIDを確認する</text><polygon fill="#05D686" points="183.9895,194.2285,475.9144,194.2285,485.1331,208.6747,475.9144,223.1209,183.9895,223.1209,174.7708,208.6747,183.9895,194.2285" style="stroke: #FFFFFF; stroke-width: 1.152335224792667;"/><text fill="#FFFFFF" font-family="Noto Sans CJK JP" font-size="10.7551" font-weight="bold" lengthAdjust="spacingAndGlyphs" textLength="270.4147" x="194.7447" y="213.0755">ディレクティブのダイアログID == 最終ダイアログID</text><text fill="#000000" font-family="Noto Sans CJK JP" font-size="9.2187" lengthAdjust="spacingAndGlyphs" textLength="18.4374" x="148.6512" y="198.9669">はい</text><text fill="#000000" font-family="Noto Sans CJK JP" font-size="9.2187" lengthAdjust="spacingAndGlyphs" textLength="27.656" x="492.8154" y="198.9669">いいえ</text><rect fill="#9EA0CA" height="44.2569" rx="9.6028" ry="9.6028" style="stroke: #FFFFFF; stroke-width: 1.152335224792667;" width="318.8127" x="7.6822" y="230.8031"/><text fill="#FFFFFF" font-family="Noto Sans CJK JP" font-size="10.7551" font-weight="bold" lengthAdjust="spacingAndGlyphs" textLength="288.0838" x="23.0467" y="257.3324">受信したディレクティブをメッセージキューに追加する</text><ellipse cx="167.0886" cy="298.8749" fill="#FFFFFF" rx="8.4505" ry="8.4505" style="stroke: #000000; stroke-width: 0.7682234831951114;"/><ellipse cx="167.0886" cy="298.8749" fill="#000000" rx="4.6093" ry="4.6093" style="stroke: #7F7F7F; stroke-width: 0.7682234831951114;"/><rect fill="#9EA0CA" height="44.2569" rx="9.6028" ry="9.6028" style="stroke: #FFFFFF; stroke-width: 1.152335224792667;" width="215.1026" x="385.2641" y="230.8031"/><text fill="#FFFFFF" font-family="Noto Sans CJK JP" font-size="10.7551" font-weight="bold" lengthAdjust="spacingAndGlyphs" textLength="184.3736" x="400.6285" y="257.3324">受信したディレクティブを破棄する</text><ellipse cx="492.8154" cy="298.8749" fill="#FFFFFF" rx="8.4505" ry="8.4505" style="stroke: #000000; stroke-width: 0.7682234831951114;"/><ellipse cx="492.8154" cy="298.8749" fill="#000000" rx="4.6093" ry="4.6093" style="stroke: #7F7F7F; stroke-width: 0.7682234831951114;"/><rect fill="#9EA0CA" height="44.2569" rx="9.6028" ry="9.6028" style="stroke: #FFFFFF; stroke-width: 1.152335224792667;" width="249.6726" x="623.4134" y="134.6072"/><text fill="#FFFFFF" font-family="Noto Sans CJK JP" font-size="10.7551" font-weight="bold" lengthAdjust="spacingAndGlyphs" textLength="218.9437" x="638.7778" y="161.1364">受信したディレクティブを即座に処理する</text><ellipse cx="748.2497" cy="202.679" fill="#FFFFFF" rx="8.4505" ry="8.4505" style="stroke: #000000; stroke-width: 0.7682234831951114;"/><ellipse cx="748.2497" cy="202.679" fill="#000000" rx="4.6093" ry="4.6093" style="stroke: #7F7F7F; stroke-width: 0.7682234831951114;"/><line style="stroke: #000000; stroke-width: 1.152335224792667;" x1="539.1008" x2="539.1008" y1="23.0467" y2="38.4112"/><polygon fill="#000000" points="536.0279,30.7289,539.1008,38.4112,542.1737,30.7289,539.1008,33.8018" style="stroke: #000000; stroke-width: 0.7682234831951114;"/><line style="stroke: #000000; stroke-width: 1.152335224792667;" x1="167.0886" x2="167.0886" y1="275.06" y2="290.4245"/><polygon fill="#000000" points="164.0157,282.7423,167.0886,290.4245,170.1615,282.7423,167.0886,285.8151" style="stroke: #000000; stroke-width: 0.7682234831951114;"/><line style="stroke: #000000; stroke-width: 1.152335224792667;" x1="492.8154" x2="492.8154" y1="275.06" y2="290.4245"/><polygon fill="#000000" points="489.7425,282.7423,492.8154,290.4245,495.8883,282.7423,492.8154,285.8151" style="stroke: #000000; stroke-width: 0.7682234831951114;"/><line style="stroke: #000000; stroke-width: 1.152335224792667;" x1="174.7708" x2="167.0886" y1="208.6747" y2="208.6747"/><line style="stroke: #000000; stroke-width: 1.152335224792667;" x1="167.0886" x2="167.0886" y1="208.6747" y2="230.8031"/><polygon fill="#000000" points="164.0157,223.1209,167.0886,230.8031,170.1615,223.1209,167.0886,226.1938" style="stroke: #000000; stroke-width: 0.7682234831951114;"/><line style="stroke: #000000; stroke-width: 1.152335224792667;" x1="485.1331" x2="492.8154" y1="208.6747" y2="208.6747"/><line style="stroke: #000000; stroke-width: 1.152335224792667;" x1="492.8154" x2="492.8154" y1="208.6747" y2="230.8031"/><polygon fill="#000000" points="489.7425,223.1209,492.8154,230.8031,495.8883,223.1209,492.8154,226.1938" style="stroke: #000000; stroke-width: 0.7682234831951114;"/><line style="stroke: #000000; stroke-width: 1.152335224792667;" x1="329.952" x2="329.952" y1="178.864" y2="194.2285"/><polygon fill="#000000" points="326.8791,186.5463,329.952,194.2285,333.0249,186.5463,329.952,189.6192" style="stroke: #000000; stroke-width: 0.7682234831951114;"/><line style="stroke: #000000; stroke-width: 1.152335224792667;" x1="748.2497" x2="748.2497" y1="178.864" y2="194.2285"/><polygon fill="#000000" points="745.1768,186.5463,748.2497,194.2285,751.3226,186.5463,748.2497,189.6192" style="stroke: #000000; stroke-width: 0.7682234831951114;"/><line style="stroke: #000000; stroke-width: 1.152335224792667;" x1="456.1327" x2="329.952" y1="112.4787" y2="112.4787"/><line style="stroke: #000000; stroke-width: 1.152335224792667;" x1="329.952" x2="329.952" y1="112.4787" y2="134.6072"/><polygon fill="#000000" points="326.8791,126.9249,329.952,134.6072,333.0249,126.9249,329.952,129.9978" style="stroke: #000000; stroke-width: 0.7682234831951114;"/><line style="stroke: #000000; stroke-width: 1.152335224792667;" x1="622.069" x2="748.2497" y1="112.4787" y2="112.4787"/><line style="stroke: #000000; stroke-width: 1.152335224792667;" x1="748.2497" x2="748.2497" y1="112.4787" y2="134.6072"/><polygon fill="#000000" points="745.1768,126.9249,748.2497,134.6072,751.3226,126.9249,748.2497,129.9978" style="stroke: #000000; stroke-width: 0.7682234831951114;"/><line style="stroke: #000000; stroke-width: 1.152335224792667;" x1="539.1008" x2="539.1008" y1="82.668" y2="98.0325"/><polygon fill="#000000" points="536.0279,90.3503,539.1008,98.0325,542.1737,90.3503,539.1008,93.4232" style="stroke: #000000; stroke-width: 0.7682234831951114;"/><!--
@startuml
scale max 880 width
skinparam sequenceMessageAlign center
skinparam shadowing false
skinparam roundcorner 10
skinparam padding 10
skinparam defaultFontSize 12
skinparam defaultFontName "Noto Sans CJK JP"

skinparam note {
  BackgroundColor #9EA0CA
  BorderColor #ffffff
  FontColor #ffffff
  FontSize 14
  FontStyle bold
}

skinparam sequence {
  ArrowColor #000000
  ActorBorderColor #000000
  ActorFontStyle Bolder


  LifeLineBorderColor #000000
  LifeLineBackgroundColor transparent
  ParticipantBorderColor transparent
  ParticipantFontSize 14
  ParticipantFontColor #ffffff
  ParticipantFontStyle bold

  BoxBorderColor #000000
  BoxFontColor #ffffff
    BoxFontSize 14
    BoxFontStyle bold
}
hide footbox

skinparam activity {
  BackgroundColor #9EA0CA
  BarColor #ffffff
  BorderColor #ffffff
  DiamondBackgroundColor #05D686
  DiamondBorderColor #ffffff
  DiamondFontColor #ffffff
  DiamondFontSize 14
  DiamondFontStyle bold
  FontColor #ffffff 
  FontSize 14
  FontStyle bold
}

start

:受信したディレクティブのダイアログIDを確認する;

if ( ダイアログIDが存在する ) then (はい)

  :最終ダイアログIDを確認する;

  if ( ディレクティブのダイアログID == 最終ダイアログID ) then (はい)

  :受信したディレクティブをメッセージキューに追加する;
  stop

  else (いいえ)

  :受信したディレクティブを破棄する;
  stop
  endif

else (いいえ)
  :受信したディレクティブを即座に処理する;
  stop
endif

@enduml

PlantUML version 1.2019.09(Tue Aug 27 01:19:51 JST 2019)
(GPL source distribution)
Java Runtime: Java(TM) SE Runtime Environment
JVM: Java HotSpot(TM) 64-Bit Server VM
Java Version: 1.8.0_202-b08
Operating System: Windows 10
OS Version: 10.0
Default Encoding: MS932
Language: ja
Country: JP
--></g></svg>